<mxfile host="app.diagrams.net" modified="2023-11-06T05:31:18.536Z" agent="Mozilla/5.0 (Macintosh; Intel Mac OS X 10_15_7) AppleWebKit/537.36 (KHTML, like Gecko) Chrome/119.0.0.0 Safari/537.36" etag="5KDHLXdlRkgamtoRfsoI" version="21.5.2" type="github">
  <diagram name="Page-1" id="g4HIoQzokw1bhYpeNjsl">
    <mxGraphModel dx="180" dy="2277" grid="1" gridSize="10" guides="1" tooltips="1" connect="1" arrows="1" fold="1" page="1" pageScale="1" pageWidth="850" pageHeight="1100" math="0" shadow="0">
      <root>
        <mxCell id="0" />
        <mxCell id="1" parent="0" />
        <UserObject label="" plantUmlData="{&quot;data&quot;:&quot;@startuml\n\npackage \&quot;Development Stand\&quot; {\n    [Development]\n    note bottom: Unit Testing\n}\n\npackage \&quot;Lab Stand\&quot; {\n    [Lab]\n    note bottom: Integration Testing\n    note right: System Testing\n    note right: Functional Testing\n}\n\npackage \&quot;Production Stand\&quot; {\n    [Production]\n    note bottom: Acceptance Testing\n}\n\nagent Jenkins\ncloud \&quot;Product System/Sub-Systems\&quot; {\n    component #Green \&quot;Armstrong UI\&quot; as AUI\n    #lightGreen [Language \\nUpdate Service] as LUS\n    #lightBlue [Github]\n    #lightBlue [Transifex] \n    #lightBlue [Config CDN \\n(language delta file)] as CDN\n    #Purple [OMW STB]\n}\n\nAUI --&gt; LUS \nLUS &lt;-- [Transifex]\nLUS -down--&gt; CDN\nLUS &lt;-- [Github]\nCDN --&gt; [OMW STB]\n\nJenkins --&gt; [Development]\nJenkins --&gt; [Lab]\nJenkins --&gt; [Production]\n\n[Development] --&gt; \&quot;Product System/Sub-Systems\&quot;\n[Lab] --&gt; \&quot;Product System/Sub-Systems\&quot;\n[Production] --&gt; \&quot;Product System/Sub-Systems\&quot;\n\nactor \&quot;LG Corp PM\&quot;\nactor \&quot;Country PM \\nCopywriter/ \\nTranslator\&quot; as CPM\nactor \&quot;Deployment \\nEngeneer\&quot; as DE\n\n\&quot;LG Corp PM\&quot; -[#red]-&gt; [Transifex]\nDE -[#red]-&gt; AUI\nCPM -[#red]-&gt; [Transifex]\n\n@enduml\n&quot;,&quot;format&quot;:&quot;svg&quot;}" id="RmYFNsJNdAvTuOu2XjMB-138">
          <mxCell style="shape=image;noLabel=1;verticalAlign=top;aspect=fixed;imageAspect=0;image=data:image/svg+xml,PD94bWwgdmVyc2lvbj0iMS4wIiBlbmNvZGluZz0idXMtYXNjaWkiIHN0YW5kYWxvbmU9Im5vIj8+PHN2ZyB4bWxucz0iaHR0cDovL3d3dy53My5vcmcvMjAwMC9zdmciIHhtbG5zOnhsaW5rPSJodHRwOi8vd3d3LnczLm9yZy8xOTk5L3hsaW5rIiBjb250ZW50U3R5bGVUeXBlPSJ0ZXh0L2NzcyIgaGVpZ2h0PSI4NTVweCIgcHJlc2VydmVBc3BlY3RSYXRpbz0ibm9uZSIgc3R5bGU9IndpZHRoOjEyNDdweDtoZWlnaHQ6ODU1cHg7YmFja2dyb3VuZDojRkZGRkZGOyIgdmVyc2lvbj0iMS4xIiB2aWV3Qm94PSIwIDAgMTI0NyA4NTUiIHdpZHRoPSIxMjQ3cHgiIHpvb21BbmRQYW49Im1hZ25pZnkiPjxkZWZzLz48Zz48IS0tY2x1c3RlciBEZXZlbG9wbWVudCBTdGFuZC0tPjxnIGlkPSJjbHVzdGVyX0RldmVsb3BtZW50IFN0YW5kIj48cGF0aCBkPSJNODkyLjUsOTEuNSBMMTAxMy41LDkxLjUgQTMuNzUsMy43NSAwIDAgMSAxMDE2LDk0IEwxMDIzLDExMi40ODQ0IEwxMDM3LjUsMTEyLjQ4NDQgQTIuNSwyLjUgMCAwIDEgMTA0MCwxMTQuOTg0NCBMMTA0MCwzMDUgQTIuNSwyLjUgMCAwIDEgMTAzNy41LDMwNy41IEw4OTIuNSwzMDcuNSBBMi41LDIuNSAwIDAgMSA4OTAsMzA1IEw4OTAsOTQgQTIuNSwyLjUgMCAwIDEgODkyLjUsOTEuNSAiIGZpbGw9Im5vbmUiIHN0eWxlPSJzdHJva2U6IzAwMDAwMDtzdHJva2Utd2lkdGg6MS41OyIvPjxsaW5lIHN0eWxlPSJzdHJva2U6IzAwMDAwMDtzdHJva2Utd2lkdGg6MS41OyIgeDE9Ijg5MCIgeDI9IjEwMjMiIHkxPSIxMTIuNDg0NCIgeTI9IjExMi40ODQ0Ii8+PHRleHQgZmlsbD0iIzAwMDAwMCIgZm9udC1mYW1pbHk9InNhbnMtc2VyaWYiIGZvbnQtc2l6ZT0iMTQiIGZvbnQtd2VpZ2h0PSJib2xkIiBsZW5ndGhBZGp1c3Q9InNwYWNpbmciIHRleHRMZW5ndGg9IjEyMCIgeD0iODk0IiB5PSIxMDYuNzM0NCI+RGV2ZWxvcG1lbnQgU3RhbmQ8L3RleHQ+PC9nPjwhLS1jbHVzdGVyIExhYiBTdGFuZC0tPjxnIGlkPSJjbHVzdGVyX0xhYiBTdGFuZCI+PHBhdGggZD0iTTguNSw5MS41IEw3Mi41LDkxLjUgQTMuNzUsMy43NSAwIDAgMSA3NSw5NCBMODIsMTEyLjQ4NDQgTDUwOS41LDExMi40ODQ0IEEyLjUsMi41IDAgMCAxIDUxMiwxMTQuOTg0NCBMNTEyLDMwNSBBMi41LDIuNSAwIDAgMSA1MDkuNSwzMDcuNSBMOC41LDMwNy41IEEyLjUsMi41IDAgMCAxIDYsMzA1IEw2LDk0IEEyLjUsMi41IDAgMCAxIDguNSw5MS41ICIgZmlsbD0ibm9uZSIgc3R5bGU9InN0cm9rZTojMDAwMDAwO3N0cm9rZS13aWR0aDoxLjU7Ii8+PGxpbmUgc3R5bGU9InN0cm9rZTojMDAwMDAwO3N0cm9rZS13aWR0aDoxLjU7IiB4MT0iNiIgeDI9IjgyIiB5MT0iMTEyLjQ4NDQiIHkyPSIxMTIuNDg0NCIvPjx0ZXh0IGZpbGw9IiMwMDAwMDAiIGZvbnQtZmFtaWx5PSJzYW5zLXNlcmlmIiBmb250LXNpemU9IjE0IiBmb250LXdlaWdodD0iYm9sZCIgbGVuZ3RoQWRqdXN0PSJzcGFjaW5nIiB0ZXh0TGVuZ3RoPSI2MyIgeD0iMTAiIHk9IjEwNi43MzQ0Ij5MYWIgU3RhbmQ8L3RleHQ+PC9nPjwhLS1jbHVzdGVyIFByb2R1Y3Rpb24gU3RhbmQtLT48ZyBpZD0iY2x1c3Rlcl9Qcm9kdWN0aW9uIFN0YW5kIj48cGF0aCBkPSJNMTA2Ni41LDkxLjUgTDExNzkuNSw5MS41IEEzLjc1LDMuNzUgMCAwIDEgMTE4Miw5NCBMMTE4OSwxMTIuNDg0NCBMMTIzNy41LDExMi40ODQ0IEEyLjUsMi41IDAgMCAxIDEyNDAsMTE0Ljk4NDQgTDEyNDAsMzA1IEEyLjUsMi41IDAgMCAxIDEyMzcuNSwzMDcuNSBMMTA2Ni41LDMwNy41IEEyLjUsMi41IDAgMCAxIDEwNjQsMzA1IEwxMDY0LDk0IEEyLjUsMi41IDAgMCAxIDEwNjYuNSw5MS41ICIgZmlsbD0ibm9uZSIgc3R5bGU9InN0cm9rZTojMDAwMDAwO3N0cm9rZS13aWR0aDoxLjU7Ii8+PGxpbmUgc3R5bGU9InN0cm9rZTojMDAwMDAwO3N0cm9rZS13aWR0aDoxLjU7IiB4MT0iMTA2NCIgeDI9IjExODkiIHkxPSIxMTIuNDg0NCIgeTI9IjExMi40ODQ0Ii8+PHRleHQgZmlsbD0iIzAwMDAwMCIgZm9udC1mYW1pbHk9InNhbnMtc2VyaWYiIGZvbnQtc2l6ZT0iMTQiIGZvbnQtd2VpZ2h0PSJib2xkIiBsZW5ndGhBZGp1c3Q9InNwYWNpbmciIHRleHRMZW5ndGg9IjExMiIgeD0iMTA2OCIgeT0iMTA2LjczNDQiPlByb2R1Y3Rpb24gU3RhbmQ8L3RleHQ+PC9nPjwhLS1jbHVzdGVyIFByb2R1Y3QgU3lzdGVtL1N1Yi1TeXN0ZW1zLS0+PGcgaWQ9ImNsdXN0ZXJfUHJvZHVjdCBTeXN0ZW0vU3ViLVN5c3RlbXMiPjxwYXRoIGQ9Ik01NjYuMTY2OCwyMzEuMzE1MSBDNTc2LjE1MTYsMjEwLjAwMjggNTk0Ljc2OTksMjA4Ljc3NDkgNjA4LjM5OTUsMjI3LjQ2NzQgQzYyMS4yODc0LDIwNC45ODM5IDY0Mi4yNzAzLDIwMi45OTg2IDY1Ny45OTY0LDIyNC4yNDg2IEM2NjguMDg0LDE5OS42NDE3IDY4Ni45NSwyMDAuODE0NSA3MDIuMjI3LDIxOC44NjgyIEM3MTcuMjg1OCwxOTUuOTg3OCA3NDIuNjAxNSwxOTYuOTI1NiA3NTQuMTEwNSwyMjIuNjU2OSBDNzcxLjUzMDQsMTk4LjQ2ODUgNzg2LjI2NTQsMjAwLjIwMTYgODAyLjI5MjcsMjI0LjA1MzYgQzgxOS4zOTkzLDIwMy43NjggODM5LjYwNTYsMjA1LjE4NzEgODUwLDIzMSBDODUyLjgxOSwyMzIuMjk0NCA4NTMuNTA3LDIzNC4xMzY5IDg1MS4yNzIyLDIzNi41ODMgQzg2OC40NDAxLDI0OC45NTMyIDg3Mi41OTgyLDI2Mi43ODIxIDg1My43Nzk3LDI3Ny4zNjQ5IEM4NzQuNjA3MSwyODkuNzIwMyA4NzUuNzM1NywzMDQuOTk5NyA4NTQuNzQ5MiwzMTguMzQ0NCBDODc1Ljc2NzgsMzI5Ljk0ODQgODc4Ljk1MjgsMzQ0LjEwODkgODU4Ljc1MDYsMzU5LjcwMTEgQzg3Ny4wOTYzLDM3MS4zNTEzIDg3OS44MTI4LDM5MS41NTkgODU3LjYwNCw0MDIuMTEyOCBDODczLjQ5NzIsNDEyLjMyMjMgODc0LjEyNjksNDI5LjUwMzYgODU4LjgzNTksNDQwLjcwODYgQzg3NS4wOTIsNDUzLjUzOTggODc5LjM2OTMsNDcyLjM5NzIgODU1Ljc1NDYsNDgyLjI3MjYgQzg3Mi40NDU2LDQ5My4zMTY2IDg3Ni4wNDUzLDUwNi4xOTYyIDg1Ny4zMDUzLDUxOC43NDY1IEM4ODMuMDI0NCw1MzEuODQ3MiA4ODAuOTI1NCw1NTAuNjE2MiA4NTkuNzMxNiw1NjYuMTE5NyBDODc0LjM3OTUsNTc1LjgxNTMgODc3LjYyMDQsNTkzLjE3NDMgODU5LjE1OTcsNjAyLjM0NzIgQzg4MC4xOTExLDYxNS4yMDgzIDg3OC4zNjg4LDYyOC45MTcgODYwLjYxNjgsNjQzLjE2MjcgQzg4MC4zMzM4LDY1Ni44MTE4IDg3Ny4xOTg1LDY3NC44Njg1IDg1NS41MjMzLDY4My4yNTk2IEM4NzIuNDQ4Nyw2OTQuNjY4MyA4NzEuMzc5NSw3MTMuODg4NiA4NTQuMDE0LDcyNC4wMjc4IEM4NzEuODgzMyw3MzYuOTY4NCA4NzAuMzMzOCw3NTcuNDI3OSA4NTEuMDQ3Niw3NjcuODUzNyBDODcwLjk4NjksNzg1LjA4NDUgODY5Ljg1ODMsODA0LjExMTEgODQzLDgxMyBDODQ2LjUxNiw4MTIuMDU2NiA4NDguNDgzOSw4MTMuOTU1MyA4NDcuMjc1MSw4MTcuNTAwMyBDODM0LjU5MzUsODM4LjU1NDUgODE2LjQyMjgsODQ1LjMzNTMgODAwLjIzNTksODIxLjE0NDUgQzc4My43NDYxLDg0Mi44NjM2IDc2OS4wNDM1LDg0MS44Mzg3IDc1Mi40MDY2LDgyMS4zMTExIEM3MzguODIyOCw4NDYuMzExNSA3MTguOTM0Nyw4NDUuMzE3NyA3MDMuMzQ4MSw4MjMuNDA1NSBDNjg2LjM5MjIsODQ4LjIwNTYgNjY4LjA4MzcsODQ1LjUxMTkgNjUzLjczMDMsODIwLjc5NzUgQzY0MC4zMjQ3LDg0MS4zODEzIDYyMC41MjQsODQ0LjYzMTcgNjA2Ljk5MDUsODIwLjkzMjQgQzU4MS4wOTY3LDg0Mi4xMDY5IDU2NC4zMjA4LDgzNC44MTAyIDU1Miw4MDYgQzU1My4yNDAyLDgwNS42MTI3IDU1NC4yMzU0LDgwNi4xODk3IDU1NC4wODMzLDgwNy42MDcyIEM1MzMuODg0Nyw3OTguMTcyMSA1MzUuMTQ5Nyw3ODUuMTU0NiA1NTAuNzcxMyw3NzIuMzU0MiBDNTMwLjc5OSw3NTcuMjkzNCA1MzMuNDExMiw3MzkuNTg1OCA1NTQuMjY0Miw3MjcuNzE5OCBDNTM4LjYwMzIsNzE1LjgzOTkgNTM1LjA5MzMsNzAxLjA2MzkgNTU1LjIwNDUsNjkwLjA3NzYgQzUzNS4yMDY1LDY4MC4xMjE1IDUzNC40NDk1LDY2MS4wMDEyIDU1Mi43MDM1LDY0OC43MzEzIEM1MzEuNjA0Nyw2MzcuMDU2MyA1MjUuNzE2NCw2MTkuNTI1MSA1NDkuMDE4LDYwNC4xNzczIEM1MzAuNzYyNiw1OTMuNTgwNSA1MzEuOTk2LDU3Ni43ODQzIDU0Ny43MzkzLDU2NS4wNzU2IEM1MjIuOTUsNTUzLjkzNzYgNTI2LjI5NTEsNTM0LjYxOTIgNTQ1LjQwNTcsNTIxLjE0OSBDNTI3LjI0NjMsNTA4LjkyNDEgNTI2LjUyODYsNDkzLjExMzEgNTQ0Ljc0NzksNDgwLjMwMjUgQzUzMC43ODM1LDQ2Ny44NzM2IDUzMC43NjQzLDQ1MC41ODY5IDU0OS43MzMsNDQyLjUwMSBDNTI2Ljg3NjIsNDMyLjA2NzggNTMwLjE4MTgsNDA5Ljc3NDEgNTQ3Ljg4NTYsMzk3LjY2OTUgQzUyNi4wMDI0LDM4NS43NTE0IDUzMC41Nzk1LDM2Ny4xNDcyIDU0OC4wODI5LDM1NS40MTMxIEM1MzEuNzkzMywzNDIuNDMyNyA1MzQuMzI4MywzMjQuNjcyOCA1NTUuMDA4OSwzMTguNjU5MiBDNTM2LjQ3OTgsMzA2LjY4MjkgNTM3LjA5NjUsMjg5LjE2IDU1NS45NTQ5LDI3OC4wNTQ3IEM1MzAuMjk1MiwyNjAuNDU1MiA1MzIuNjE5OCwyMzguNjY4IDU1OSwyMjQgQzU2NS4wMTk1LDIyMi45MTA1IDU2Ny4xMDMxLDIyNS41ODk5IDU2Ni4xNjY4LDIzMS4zMTUxICIgZmlsbD0ibm9uZSIgc3R5bGU9InN0cm9rZTojMTgxODE4O3N0cm9rZS13aWR0aDoxLjA7Ii8+PHRleHQgZmlsbD0iIzAwMDAwMCIgZm9udC1mYW1pbHk9InNhbnMtc2VyaWYiIGZvbnQtc2l6ZT0iMTQiIGZvbnQtd2VpZ2h0PSJib2xkIiBsZW5ndGhBZGp1c3Q9InNwYWNpbmciIHRleHRMZW5ndGg9IjE4NCIgeD0iNjA5IiB5PSIyNDIuMjM0NCI+UHJvZHVjdCBTeXN0ZW0vU3ViLVN5c3RlbXM8L3RleHQ+PC9nPjwhLS1lbnRpdHkgRGV2ZWxvcG1lbnQtLT48ZyBpZD0iZWxlbV9EZXZlbG9wbWVudCI+PHJlY3QgZmlsbD0iI0YxRjFGMSIgaGVpZ2h0PSI0NC45ODQ0IiByeD0iMi41IiByeT0iMi41IiBzdHlsZT0ic3Ryb2tlOiMxODE4MTg7c3Ryb2tlLXdpZHRoOjAuNTsiIHdpZHRoPSIxMTgiIHg9IjkwNiIgeT0iMTI0LjUiLz48cmVjdCBmaWxsPSIjRjFGMUYxIiBoZWlnaHQ9IjEwIiBzdHlsZT0ic3Ryb2tlOiMxODE4MTg7c3Ryb2tlLXdpZHRoOjAuNTsiIHdpZHRoPSIxNSIgeD0iMTAwNCIgeT0iMTI5LjUiLz48cmVjdCBmaWxsPSIjRjFGMUYxIiBoZWlnaHQ9IjIiIHN0eWxlPSJzdHJva2U6IzE4MTgxODtzdHJva2Utd2lkdGg6MC41OyIgd2lkdGg9IjQiIHg9IjEwMDIiIHk9IjEzMS41Ii8+PHJlY3QgZmlsbD0iI0YxRjFGMSIgaGVpZ2h0PSIyIiBzdHlsZT0ic3Ryb2tlOiMxODE4MTg7c3Ryb2tlLXdpZHRoOjAuNTsiIHdpZHRoPSI0IiB4PSIxMDAyIiB5PSIxMzUuNSIvPjx0ZXh0IGZpbGw9IiMwMDAwMDAiIGZvbnQtZmFtaWx5PSJzYW5zLXNlcmlmIiBmb250LXNpemU9IjE0IiBsZW5ndGhBZGp1c3Q9InNwYWNpbmciIHRleHRMZW5ndGg9Ijc4IiB4PSI5MjEiIHk9IjE1Ny43MzQ0Ij5EZXZlbG9wbWVudDwvdGV4dD48L2c+PGcgaWQ9ImVsZW1fR01ONCI+PHBhdGggZD0iTTkxNSwyNjcuNSBMOTE1LDI5MS40MTQxIEEwLDAgMCAwIDAgOTE1LDI5MS40MTQxIEwxMDE1LDI5MS40MTQxIEEwLDAgMCAwIDAgMTAxNSwyOTEuNDE0MSBMMTAxNSwyNzcuNSBMMTAwNSwyNjcuNSBMOTY5LDI2Ny41IEw5NjUsMTY5LjU1IEw5NjEsMjY3LjUgTDkxNSwyNjcuNSBBMCwwIDAgMCAwIDkxNSwyNjcuNSAiIGZpbGw9IiNGRUZGREQiIHN0eWxlPSJzdHJva2U6IzE4MTgxODtzdHJva2Utd2lkdGg6MC41OyIvPjxwYXRoIGQ9Ik0xMDA1LDI2Ny41IEwxMDA1LDI3Ny41IEwxMDE1LDI3Ny41IEwxMDA1LDI2Ny41ICIgZmlsbD0iI0ZFRkZERCIgc3R5bGU9InN0cm9rZTojMTgxODE4O3N0cm9rZS13aWR0aDowLjU7Ii8+PHRleHQgZmlsbD0iIzAwMDAwMCIgZm9udC1mYW1pbHk9InNhbnMtc2VyaWYiIGZvbnQtc2l6ZT0iMTMiIGxlbmd0aEFkanVzdD0ic3BhY2luZyIgdGV4dExlbmd0aD0iNzkiIHg9IjkyMSIgeT0iMjg0Ljc4OTEiPlVuaXQgVGVzdGluZzwvdGV4dD48L2c+PCEtLWVudGl0eSBMYWItLT48ZyBpZD0iZWxlbV9MYWIiPjxyZWN0IGZpbGw9IiNGMUYxRjEiIGhlaWdodD0iNDQuOTg0NCIgcng9IjIuNSIgcnk9IjIuNSIgc3R5bGU9InN0cm9rZTojMTgxODE4O3N0cm9rZS13aWR0aDowLjU7IiB3aWR0aD0iNjEiIHg9IjQzNC41IiB5PSIxMjQuNSIvPjxyZWN0IGZpbGw9IiNGMUYxRjEiIGhlaWdodD0iMTAiIHN0eWxlPSJzdHJva2U6IzE4MTgxODtzdHJva2Utd2lkdGg6MC41OyIgd2lkdGg9IjE1IiB4PSI0NzUuNSIgeT0iMTI5LjUiLz48cmVjdCBmaWxsPSIjRjFGMUYxIiBoZWlnaHQ9IjIiIHN0eWxlPSJzdHJva2U6IzE4MTgxODtzdHJva2Utd2lkdGg6MC41OyIgd2lkdGg9IjQiIHg9IjQ3My41IiB5PSIxMzEuNSIvPjxyZWN0IGZpbGw9IiNGMUYxRjEiIGhlaWdodD0iMiIgc3R5bGU9InN0cm9rZTojMTgxODE4O3N0cm9rZS13aWR0aDowLjU7IiB3aWR0aD0iNCIgeD0iNDczLjUiIHk9IjEzNS41Ii8+PHRleHQgZmlsbD0iIzAwMDAwMCIgZm9udC1mYW1pbHk9InNhbnMtc2VyaWYiIGZvbnQtc2l6ZT0iMTQiIGxlbmd0aEFkanVzdD0ic3BhY2luZyIgdGV4dExlbmd0aD0iMjEiIHg9IjQ0OS41IiB5PSIxNTcuNzM0NCI+TGFiPC90ZXh0PjwvZz48ZyBpZD0iZWxlbV9HTU45Ij48cGF0aCBkPSJNMjIuNSwyNjcuNSBMMjIuNSwyOTEuNDE0MSBMMTY5LjUsMjkxLjQxNDEgTDE2OS41LDI3Ny41IEwxNTkuNSwyNjcuNSBMMjIuNSwyNjcuNSAiIGZpbGw9IiNGRUZGREQiIHN0eWxlPSJzdHJva2U6IzE4MTgxODtzdHJva2Utd2lkdGg6MC41OyIvPjxwYXRoIGQ9Ik0xNTkuNSwyNjcuNSBMMTU5LjUsMjc3LjUgTDE2OS41LDI3Ny41IEwxNTkuNSwyNjcuNSAiIGZpbGw9IiNGRUZGREQiIHN0eWxlPSJzdHJva2U6IzE4MTgxODtzdHJva2Utd2lkdGg6MS4wOyIvPjx0ZXh0IGZpbGw9IiMwMDAwMDAiIGZvbnQtZmFtaWx5PSJzYW5zLXNlcmlmIiBmb250LXNpemU9IjEzIiBsZW5ndGhBZGp1c3Q9InNwYWNpbmciIHRleHRMZW5ndGg9IjEyNiIgeD0iMjguNSIgeT0iMjg0Ljc4OTEiPkludGVncmF0aW9uIFRlc3Rpbmc8L3RleHQ+PC9nPjxnIGlkPSJlbGVtX0dNTjEyIj48cGF0aCBkPSJNMjA1LDI2Ny41IEwyMDUsMjkxLjQxNDEgTDMxOSwyOTEuNDE0MSBMMzE5LDI3Ny41IEwzMDksMjY3LjUgTDIwNSwyNjcuNSAiIGZpbGw9IiNGRUZGREQiIHN0eWxlPSJzdHJva2U6IzE4MTgxODtzdHJva2Utd2lkdGg6MC41OyIvPjxwYXRoIGQ9Ik0zMDksMjY3LjUgTDMwOSwyNzcuNSBMMzE5LDI3Ny41IEwzMDksMjY3LjUgIiBmaWxsPSIjRkVGRkREIiBzdHlsZT0ic3Ryb2tlOiMxODE4MTg7c3Ryb2tlLXdpZHRoOjEuMDsiLz48dGV4dCBmaWxsPSIjMDAwMDAwIiBmb250LWZhbWlseT0ic2Fucy1zZXJpZiIgZm9udC1zaXplPSIxMyIgbGVuZ3RoQWRqdXN0PSJzcGFjaW5nIiB0ZXh0TGVuZ3RoPSI5MyIgeD0iMjExIiB5PSIyODQuNzg5MSI+U3lzdGVtIFRlc3Rpbmc8L3RleHQ+PC9nPjxnIGlkPSJlbGVtX0dNTjE1Ij48cGF0aCBkPSJNMzU0LjUsMjY3LjUgTDM1NC41LDI5MS40MTQxIEw0OTUuNSwyOTEuNDE0MSBMNDk1LjUsMjc3LjUgTDQ4NS41LDI2Ny41IEwzNTQuNSwyNjcuNSAiIGZpbGw9IiNGRUZGREQiIHN0eWxlPSJzdHJva2U6IzE4MTgxODtzdHJva2Utd2lkdGg6MC41OyIvPjxwYXRoIGQ9Ik00ODUuNSwyNjcuNSBMNDg1LjUsMjc3LjUgTDQ5NS41LDI3Ny41IEw0ODUuNSwyNjcuNSAiIGZpbGw9IiNGRUZGREQiIHN0eWxlPSJzdHJva2U6IzE4MTgxODtzdHJva2Utd2lkdGg6MS4wOyIvPjx0ZXh0IGZpbGw9IiMwMDAwMDAiIGZvbnQtZmFtaWx5PSJzYW5zLXNlcmlmIiBmb250LXNpemU9IjEzIiBsZW5ndGhBZGp1c3Q9InNwYWNpbmciIHRleHRMZW5ndGg9IjEyMCIgeD0iMzYwLjUiIHk9IjI4NC43ODkxIj5GdW5jdGlvbmFsIFRlc3Rpbmc8L3RleHQ+PC9nPjwhLS1lbnRpdHkgUHJvZHVjdGlvbi0tPjxnIGlkPSJlbGVtX1Byb2R1Y3Rpb24iPjxyZWN0IGZpbGw9IiNGMUYxRjEiIGhlaWdodD0iNDQuOTg0NCIgcng9IjIuNSIgcnk9IjIuNSIgc3R5bGU9InN0cm9rZTojMTgxODE4O3N0cm9rZS13aWR0aDowLjU7IiB3aWR0aD0iMTEwIiB4PSIxMDgwIiB5PSIxMjQuNSIvPjxyZWN0IGZpbGw9IiNGMUYxRjEiIGhlaWdodD0iMTAiIHN0eWxlPSJzdHJva2U6IzE4MTgxODtzdHJva2Utd2lkdGg6MC41OyIgd2lkdGg9IjE1IiB4PSIxMTcwIiB5PSIxMjkuNSIvPjxyZWN0IGZpbGw9IiNGMUYxRjEiIGhlaWdodD0iMiIgc3R5bGU9InN0cm9rZTojMTgxODE4O3N0cm9rZS13aWR0aDowLjU7IiB3aWR0aD0iNCIgeD0iMTE2OCIgeT0iMTMxLjUiLz48cmVjdCBmaWxsPSIjRjFGMUYxIiBoZWlnaHQ9IjIiIHN0eWxlPSJzdHJva2U6IzE4MTgxODtzdHJva2Utd2lkdGg6MC41OyIgd2lkdGg9IjQiIHg9IjExNjgiIHk9IjEzNS41Ii8+PHRleHQgZmlsbD0iIzAwMDAwMCIgZm9udC1mYW1pbHk9InNhbnMtc2VyaWYiIGZvbnQtc2l6ZT0iMTQiIGxlbmd0aEFkanVzdD0ic3BhY2luZyIgdGV4dExlbmd0aD0iNzAiIHg9IjEwOTUiIHk9IjE1Ny43MzQ0Ij5Qcm9kdWN0aW9uPC90ZXh0PjwvZz48ZyBpZD0iZWxlbV9HTU4yMCI+PHBhdGggZD0iTTEwODAuNSwyNjcuNSBMMTA4MC41LDI5MS40MTQxIEEwLDAgMCAwIDAgMTA4MC41LDI5MS40MTQxIEwxMjIzLjUsMjkxLjQxNDEgQTAsMCAwIDAgMCAxMjIzLjUsMjkxLjQxNDEgTDEyMjMuNSwyNzcuNSBMMTIxMy41LDI2Ny41IEwxMTU0LjU1LDI2Ny41IEwxMTM3LjgxLDE2OS41NSBMMTE0Ni41NSwyNjcuNSBMMTA4MC41LDI2Ny41IEEwLDAgMCAwIDAgMTA4MC41LDI2Ny41ICIgZmlsbD0iI0ZFRkZERCIgc3R5bGU9InN0cm9rZTojMTgxODE4O3N0cm9rZS13aWR0aDowLjU7Ii8+PHBhdGggZD0iTTEyMTMuNSwyNjcuNSBMMTIxMy41LDI3Ny41IEwxMjIzLjUsMjc3LjUgTDEyMTMuNSwyNjcuNSAiIGZpbGw9IiNGRUZGREQiIHN0eWxlPSJzdHJva2U6IzE4MTgxODtzdHJva2Utd2lkdGg6MC41OyIvPjx0ZXh0IGZpbGw9IiMwMDAwMDAiIGZvbnQtZmFtaWx5PSJzYW5zLXNlcmlmIiBmb250LXNpemU9IjEzIiBsZW5ndGhBZGp1c3Q9InNwYWNpbmciIHRleHRMZW5ndGg9IjEyMiIgeD0iMTA4Ni41IiB5PSIyODQuNzg5MSI+QWNjZXB0YW5jZSBUZXN0aW5nPC90ZXh0PjwvZz48IS0tZW50aXR5IEFVSS0tPjxnIGlkPSJlbGVtX0FVSSI+PHJlY3QgZmlsbD0iIzAwODAwMCIgaGVpZ2h0PSI0NC45ODQ0IiByeD0iMi41IiByeT0iMi41IiBzdHlsZT0ic3Ryb2tlOiMxODE4MTg7c3Ryb2tlLXdpZHRoOjAuNTsiIHdpZHRoPSIxMjUiIHg9IjYyMy41IiB5PSIyNTciLz48cmVjdCBmaWxsPSIjMDA4MDAwIiBoZWlnaHQ9IjEwIiBzdHlsZT0ic3Ryb2tlOiMxODE4MTg7c3Ryb2tlLXdpZHRoOjAuNTsiIHdpZHRoPSIxNSIgeD0iNzI4LjUiIHk9IjI2MiIvPjxyZWN0IGZpbGw9IiMwMDgwMDAiIGhlaWdodD0iMiIgc3R5bGU9InN0cm9rZTojMTgxODE4O3N0cm9rZS13aWR0aDowLjU7IiB3aWR0aD0iNCIgeD0iNzI2LjUiIHk9IjI2NCIvPjxyZWN0IGZpbGw9IiMwMDgwMDAiIGhlaWdodD0iMiIgc3R5bGU9InN0cm9rZTojMTgxODE4O3N0cm9rZS13aWR0aDowLjU7IiB3aWR0aD0iNCIgeD0iNzI2LjUiIHk9IjI2OCIvPjx0ZXh0IGZpbGw9IiMwMDAwMDAiIGZvbnQtZmFtaWx5PSJzYW5zLXNlcmlmIiBmb250LXNpemU9IjE0IiBsZW5ndGhBZGp1c3Q9InNwYWNpbmciIHRleHRMZW5ndGg9Ijg1IiB4PSI2MzguNSIgeT0iMjkwLjIzNDQiPkFybXN0cm9uZyBVSTwvdGV4dD48L2c+PCEtLWVudGl0eSBMVVMtLT48ZyBpZD0iZWxlbV9MVVMiPjxyZWN0IGZpbGw9IiM5MEVFOTAiIGhlaWdodD0iNTkuOTY4OCIgcng9IjIuNSIgcnk9IjIuNSIgc3R5bGU9InN0cm9rZTojMTgxODE4O3N0cm9rZS13aWR0aDowLjU7IiB3aWR0aD0iMTM4IiB4PSI2MTciIHk9IjM4NC41Ii8+PHJlY3QgZmlsbD0iIzkwRUU5MCIgaGVpZ2h0PSIxMCIgc3R5bGU9InN0cm9rZTojMTgxODE4O3N0cm9rZS13aWR0aDowLjU7IiB3aWR0aD0iMTUiIHg9IjczNSIgeT0iMzg5LjUiLz48cmVjdCBmaWxsPSIjOTBFRTkwIiBoZWlnaHQ9IjIiIHN0eWxlPSJzdHJva2U6IzE4MTgxODtzdHJva2Utd2lkdGg6MC41OyIgd2lkdGg9IjQiIHg9IjczMyIgeT0iMzkxLjUiLz48cmVjdCBmaWxsPSIjOTBFRTkwIiBoZWlnaHQ9IjIiIHN0eWxlPSJzdHJva2U6IzE4MTgxODtzdHJva2Utd2lkdGg6MC41OyIgd2lkdGg9IjQiIHg9IjczMyIgeT0iMzk1LjUiLz48dGV4dCBmaWxsPSIjMDAwMDAwIiBmb250LWZhbWlseT0ic2Fucy1zZXJpZiIgZm9udC1zaXplPSIxNCIgbGVuZ3RoQWRqdXN0PSJzcGFjaW5nIiB0ZXh0TGVuZ3RoPSI1NiIgeD0iNjMyIiB5PSI0MTcuNzM0NCI+TGFuZ3VhZ2U8L3RleHQ+PHRleHQgZmlsbD0iIzAwMDAwMCIgZm9udC1mYW1pbHk9InNhbnMtc2VyaWYiIGZvbnQtc2l6ZT0iMTQiIGxlbmd0aEFkanVzdD0ic3BhY2luZyIgdGV4dExlbmd0aD0iOTgiIHg9IjYzMiIgeT0iNDMyLjcxODgiPlVwZGF0ZSBTZXJ2aWNlPC90ZXh0PjwvZz48IS0tZW50aXR5IEdpdGh1Yi0tPjxnIGlkPSJlbGVtX0dpdGh1YiI+PHJlY3QgZmlsbD0iI0FERDhFNiIgaGVpZ2h0PSI0NC45ODQ0IiByeD0iMi41IiByeT0iMi41IiBzdHlsZT0ic3Ryb2tlOiMxODE4MTg7c3Ryb2tlLXdpZHRoOjAuNTsiIHdpZHRoPSI4MiIgeD0iNTY4IiB5PSI1MjciLz48cmVjdCBmaWxsPSIjQUREOEU2IiBoZWlnaHQ9IjEwIiBzdHlsZT0ic3Ryb2tlOiMxODE4MTg7c3Ryb2tlLXdpZHRoOjAuNTsiIHdpZHRoPSIxNSIgeD0iNjMwIiB5PSI1MzIiLz48cmVjdCBmaWxsPSIjQUREOEU2IiBoZWlnaHQ9IjIiIHN0eWxlPSJzdHJva2U6IzE4MTgxODtzdHJva2Utd2lkdGg6MC41OyIgd2lkdGg9IjQiIHg9IjYyOCIgeT0iNTM0Ii8+PHJlY3QgZmlsbD0iI0FERDhFNiIgaGVpZ2h0PSIyIiBzdHlsZT0ic3Ryb2tlOiMxODE4MTg7c3Ryb2tlLXdpZHRoOjAuNTsiIHdpZHRoPSI0IiB4PSI2MjgiIHk9IjUzOCIvPjx0ZXh0IGZpbGw9IiMwMDAwMDAiIGZvbnQtZmFtaWx5PSJzYW5zLXNlcmlmIiBmb250LXNpemU9IjE0IiBsZW5ndGhBZGp1c3Q9InNwYWNpbmciIHRleHRMZW5ndGg9IjQyIiB4PSI1ODMiIHk9IjU2MC4yMzQ0Ij5HaXRodWI8L3RleHQ+PC9nPjwhLS1lbnRpdHkgVHJhbnNpZmV4LS0+PGcgaWQ9ImVsZW1fVHJhbnNpZmV4Ij48cmVjdCBmaWxsPSIjQUREOEU2IiBoZWlnaHQ9IjQ0Ljk4NDQiIHJ4PSIyLjUiIHJ5PSIyLjUiIHN0eWxlPSJzdHJva2U6IzE4MTgxODtzdHJva2Utd2lkdGg6MC41OyIgd2lkdGg9IjEwMyIgeD0iNzIyLjUiIHk9IjUyNyIvPjxyZWN0IGZpbGw9IiNBREQ4RTYiIGhlaWdodD0iMTAiIHN0eWxlPSJzdHJva2U6IzE4MTgxODtzdHJva2Utd2lkdGg6MC41OyIgd2lkdGg9IjE1IiB4PSI4MDUuNSIgeT0iNTMyIi8+PHJlY3QgZmlsbD0iI0FERDhFNiIgaGVpZ2h0PSIyIiBzdHlsZT0ic3Ryb2tlOiMxODE4MTg7c3Ryb2tlLXdpZHRoOjAuNTsiIHdpZHRoPSI0IiB4PSI4MDMuNSIgeT0iNTM0Ii8+PHJlY3QgZmlsbD0iI0FERDhFNiIgaGVpZ2h0PSIyIiBzdHlsZT0ic3Ryb2tlOiMxODE4MTg7c3Ryb2tlLXdpZHRoOjAuNTsiIHdpZHRoPSI0IiB4PSI4MDMuNSIgeT0iNTM4Ii8+PHRleHQgZmlsbD0iIzAwMDAwMCIgZm9udC1mYW1pbHk9InNhbnMtc2VyaWYiIGZvbnQtc2l6ZT0iMTQiIGxlbmd0aEFkanVzdD0ic3BhY2luZyIgdGV4dExlbmd0aD0iNjMiIHg9IjczNy41IiB5PSI1NjAuMjM0NCI+VHJhbnNpZmV4PC90ZXh0PjwvZz48IS0tZW50aXR5IENETi0tPjxnIGlkPSJlbGVtX0NETiI+PHJlY3QgZmlsbD0iI0FERDhFNiIgaGVpZ2h0PSI1OS45Njg4IiByeD0iMi41IiByeT0iMi41IiBzdHlsZT0ic3Ryb2tlOiMxODE4MTg7c3Ryb2tlLXdpZHRoOjAuNTsiIHdpZHRoPSIxODkiIHg9IjU5MS41IiB5PSI2MzIiLz48cmVjdCBmaWxsPSIjQUREOEU2IiBoZWlnaHQ9IjEwIiBzdHlsZT0ic3Ryb2tlOiMxODE4MTg7c3Ryb2tlLXdpZHRoOjAuNTsiIHdpZHRoPSIxNSIgeD0iNzYwLjUiIHk9IjYzNyIvPjxyZWN0IGZpbGw9IiNBREQ4RTYiIGhlaWdodD0iMiIgc3R5bGU9InN0cm9rZTojMTgxODE4O3N0cm9rZS13aWR0aDowLjU7IiB3aWR0aD0iNCIgeD0iNzU4LjUiIHk9IjYzOSIvPjxyZWN0IGZpbGw9IiNBREQ4RTYiIGhlaWdodD0iMiIgc3R5bGU9InN0cm9rZTojMTgxODE4O3N0cm9rZS13aWR0aDowLjU7IiB3aWR0aD0iNCIgeD0iNzU4LjUiIHk9IjY0MyIvPjx0ZXh0IGZpbGw9IiMwMDAwMDAiIGZvbnQtZmFtaWx5PSJzYW5zLXNlcmlmIiBmb250LXNpemU9IjE0IiBsZW5ndGhBZGp1c3Q9InNwYWNpbmciIHRleHRMZW5ndGg9IjcwIiB4PSI2MDYuNSIgeT0iNjY1LjIzNDQiPkNvbmZpZyBDRE48L3RleHQ+PHRleHQgZmlsbD0iIzAwMDAwMCIgZm9udC1mYW1pbHk9InNhbnMtc2VyaWYiIGZvbnQtc2l6ZT0iMTQiIGxlbmd0aEFkanVzdD0ic3BhY2luZyIgdGV4dExlbmd0aD0iMTQ5IiB4PSI2MDYuNSIgeT0iNjgwLjIxODgiPihsYW5ndWFnZSBkZWx0YSBmaWxlKTwvdGV4dD48L2c+PCEtLWVudGl0eSBPTVcgU1RCLS0+PGcgaWQ9ImVsZW1fT01XIFNUQiI+PHJlY3QgZmlsbD0iIzgwMDA4MCIgaGVpZ2h0PSI0NC45ODQ0IiByeD0iMi41IiByeT0iMi41IiBzdHlsZT0ic3Ryb2tlOiMxODE4MTg7c3Ryb2tlLXdpZHRoOjAuNTsiIHdpZHRoPSI4OSIgeD0iNjQxLjUiIHk9Ijc1MiIvPjxyZWN0IGZpbGw9IiM4MDAwODAiIGhlaWdodD0iMTAiIHN0eWxlPSJzdHJva2U6IzE4MTgxODtzdHJva2Utd2lkdGg6MC41OyIgd2lkdGg9IjE1IiB4PSI3MTAuNSIgeT0iNzU3Ii8+PHJlY3QgZmlsbD0iIzgwMDA4MCIgaGVpZ2h0PSIyIiBzdHlsZT0ic3Ryb2tlOiMxODE4MTg7c3Ryb2tlLXdpZHRoOjAuNTsiIHdpZHRoPSI0IiB4PSI3MDguNSIgeT0iNzU5Ii8+PHJlY3QgZmlsbD0iIzgwMDA4MCIgaGVpZ2h0PSIyIiBzdHlsZT0ic3Ryb2tlOiMxODE4MTg7c3Ryb2tlLXdpZHRoOjAuNTsiIHdpZHRoPSI0IiB4PSI3MDguNSIgeT0iNzYzIi8+PHRleHQgZmlsbD0iIzAwMDAwMCIgZm9udC1mYW1pbHk9InNhbnMtc2VyaWYiIGZvbnQtc2l6ZT0iMTQiIGxlbmd0aEFkanVzdD0ic3BhY2luZyIgdGV4dExlbmd0aD0iNDkiIHg9IjY1Ni41IiB5PSI3ODUuMjM0NCI+T01XIFNUQjwvdGV4dD48L2c+PCEtLWVudGl0eSBKZW5raW5zLS0+PGcgaWQ9ImVsZW1fSmVua2lucyI+PHJlY3QgZmlsbD0iI0YxRjFGMSIgaGVpZ2h0PSIzNC45ODQ0IiByeD0iMi41IiByeT0iMi41IiBzdHlsZT0ic3Ryb2tlOiMxODE4MTg7c3Ryb2tlLXdpZHRoOjAuNTsiIHdpZHRoPSI3MCIgeD0iOTMwIiB5PSI3Ii8+PHRleHQgZmlsbD0iIzAwMDAwMCIgZm9udC1mYW1pbHk9InNhbnMtc2VyaWYiIGZvbnQtc2l6ZT0iMTQiIGxlbmd0aEFkanVzdD0ic3BhY2luZyIgdGV4dExlbmd0aD0iNTAiIHg9Ijk0MCIgeT0iMzAuMjM0NCI+SmVua2luczwvdGV4dD48L2c+PCEtLWVudGl0eSBMRyBDb3JwIFBNLS0+PGcgaWQ9ImVsZW1fTEcgQ29ycCBQTSI+PGVsbGlwc2UgY3g9IjkxNyIgY3k9IjM4NS41IiBmaWxsPSIjRjFGMUYxIiByeD0iOCIgcnk9IjgiIHN0eWxlPSJzdHJva2U6IzE4MTgxODtzdHJva2Utd2lkdGg6MC41OyIvPjxwYXRoIGQ9Ik05MTcsMzkzLjUgTDkxNyw0MjAuNSBNOTA0LDQwMS41IEw5MzAsNDAxLjUgTTkxNyw0MjAuNSBMOTA0LDQzNS41IE05MTcsNDIwLjUgTDkzMCw0MzUuNSAiIGZpbGw9Im5vbmUiIHN0eWxlPSJzdHJva2U6IzE4MTgxODtzdHJva2Utd2lkdGg6MC41OyIvPjx0ZXh0IGZpbGw9IiMwMDAwMDAiIGZvbnQtZmFtaWx5PSJzYW5zLXNlcmlmIiBmb250LXNpemU9IjE0IiBsZW5ndGhBZGp1c3Q9InNwYWNpbmciIHRleHRMZW5ndGg9IjcwIiB4PSI4ODIiIHk9IjQ1MC4yMzQ0Ij5MRyBDb3JwIFBNPC90ZXh0PjwvZz48IS0tZW50aXR5IENQTS0tPjxnIGlkPSJlbGVtX0NQTSI+PGVsbGlwc2UgY3g9IjEwMzAiIGN5PSIzNzAuNSIgZmlsbD0iI0YxRjFGMSIgcng9IjgiIHJ5PSI4IiBzdHlsZT0ic3Ryb2tlOiMxODE4MTg7c3Ryb2tlLXdpZHRoOjAuNTsiLz48cGF0aCBkPSJNMTAzMCwzNzguNSBMMTAzMCw0MDUuNSBNMTAxNywzODYuNSBMMTA0MywzODYuNSBNMTAzMCw0MDUuNSBMMTAxNyw0MjAuNSBNMTAzMCw0MDUuNSBMMTA0Myw0MjAuNSAiIGZpbGw9Im5vbmUiIHN0eWxlPSJzdHJva2U6IzE4MTgxODtzdHJva2Utd2lkdGg6MC41OyIvPjx0ZXh0IGZpbGw9IiMwMDAwMDAiIGZvbnQtZmFtaWx5PSJzYW5zLXNlcmlmIiBmb250LXNpemU9IjE0IiBsZW5ndGhBZGp1c3Q9InNwYWNpbmciIHRleHRMZW5ndGg9IjcwIiB4PSI5ODcuNSIgeT0iNDM1LjIzNDQiPkNvdW50cnkgUE08L3RleHQ+PHRleHQgZmlsbD0iIzAwMDAwMCIgZm9udC1mYW1pbHk9InNhbnMtc2VyaWYiIGZvbnQtc2l6ZT0iMTQiIGxlbmd0aEFkanVzdD0ic3BhY2luZyIgdGV4dExlbmd0aD0iNzgiIHg9Ijk4Ny41IiB5PSI0NTAuMjE4OCI+Q29weXdyaXRlci88L3RleHQ+PHRleHQgZmlsbD0iIzAwMDAwMCIgZm9udC1mYW1pbHk9InNhbnMtc2VyaWYiIGZvbnQtc2l6ZT0iMTQiIGxlbmd0aEFkanVzdD0ic3BhY2luZyIgdGV4dExlbmd0aD0iNzAiIHg9Ijk4Ny41IiB5PSI0NjUuMjAzMSI+VHJhbnNsYXRvcjwvdGV4dD48L2c+PCEtLWVudGl0eSBERS0tPjxnIGlkPSJlbGVtX0RFIj48ZWxsaXBzZSBjeD0iNjg2IiBjeT0iMTEwLjUiIGZpbGw9IiNGMUYxRjEiIHJ4PSI4IiByeT0iOCIgc3R5bGU9InN0cm9rZTojMTgxODE4O3N0cm9rZS13aWR0aDowLjU7Ii8+PHBhdGggZD0iTTY4NiwxMTguNSBMNjg2LDE0NS41IE02NzMsMTI2LjUgTDY5OSwxMjYuNSBNNjg2LDE0NS41IEw2NzMsMTYwLjUgTTY4NiwxNDUuNSBMNjk5LDE2MC41ICIgZmlsbD0ibm9uZSIgc3R5bGU9InN0cm9rZTojMTgxODE4O3N0cm9rZS13aWR0aDowLjU7Ii8+PHRleHQgZmlsbD0iIzAwMDAwMCIgZm9udC1mYW1pbHk9InNhbnMtc2VyaWYiIGZvbnQtc2l6ZT0iMTQiIGxlbmd0aEFkanVzdD0ic3BhY2luZyIgdGV4dExlbmd0aD0iNzEiIHg9IjY0NyIgeT0iMTc1LjIzNDQiPkRlcGxveW1lbnQ8L3RleHQ+PHRleHQgZmlsbD0iIzAwMDAwMCIgZm9udC1mYW1pbHk9InNhbnMtc2VyaWYiIGZvbnQtc2l6ZT0iMTQiIGxlbmd0aEFkanVzdD0ic3BhY2luZyIgdGV4dExlbmd0aD0iNTYiIHg9IjY0NyIgeT0iMTkwLjIxODgiPkVuZ2VuZWVyPC90ZXh0PjwvZz48IS0tbGluayBMYWIgdG8gR01OOS0tPjxnIGlkPSJsaW5rX0xhYl9HTU45Ij48cGF0aCBkPSJNNDM0LjMyLDE0OC42NiBDMzgxLjQ4LDE1MC44OCAyNzAuOTksMTYwLjMyIDE4OCwyMDAgQzE1My4xNSwyMTYuNjYgMTIwLjg3LDI0OS45MyAxMDUuNDcsMjY3LjMyICIgZmlsbD0ibm9uZSIgaWQ9IkxhYi1HTU45IiBzdHlsZT0ic3Ryb2tlOiMxODE4MTg7c3Ryb2tlLXdpZHRoOjEuMDtzdHJva2UtZGFzaGFycmF5OjcuMCw3LjA7Ii8+PC9nPjwhLS1saW5rIEdNTjkgdG8gR01OMTItLT48ZyBpZD0ibGlua19HTU45X0dNTjEyIj48cGF0aCBkPSJNMTY5LjYsMjc5LjUgQzE4MS4zOSwyNzkuNSAxOTMuMTgsMjc5LjUgMjA0Ljk3LDI3OS41ICIgZmlsbD0ibm9uZSIgaWQ9IkdNTjktR01OMTIiIHN0eWxlPSJzdHJva2U6IzE4MTgxODtzdHJva2Utd2lkdGg6MS4wO3N0cm9rZS1kYXNoYXJyYXk6Ny4wLDcuMDsiLz48L2c+PCEtLWxpbmsgR01OMTIgdG8gR01OMTUtLT48ZyBpZD0ibGlua19HTU4xMl9HTU4xNSI+PHBhdGggZD0iTTMxOS4zLDI3OS41IEMzMzEsMjc5LjUgMzQyLjcsMjc5LjUgMzU0LjQsMjc5LjUgIiBmaWxsPSJub25lIiBpZD0iR01OMTItR01OMTUiIHN0eWxlPSJzdHJva2U6IzE4MTgxODtzdHJva2Utd2lkdGg6MS4wO3N0cm9rZS1kYXNoYXJyYXk6Ny4wLDcuMDsiLz48L2c+PCEtLWxpbmsgQVVJIHRvIExVUy0tPjxnIGlkPSJsaW5rX0FVSV9MVVMiPjxwYXRoIGQ9Ik02ODYsMzAyLjE2IEM2ODYsMzIzLjA2IDY4NiwzNTUgNjg2LDM3OS4zMiAiIGZpbGw9Im5vbmUiIGlkPSJBVUktdG8tTFVTIiBzdHlsZT0ic3Ryb2tlOiMxODE4MTg7c3Ryb2tlLXdpZHRoOjEuMDsiLz48cG9seWdvbiBmaWxsPSIjMTgxODE4IiBwb2ludHM9IjY4NiwzODQuMzgsNjkwLDM3NS4zOCw2ODYsMzc5LjM4LDY4MiwzNzUuMzgsNjg2LDM4NC4zOCIgc3R5bGU9InN0cm9rZTojMTgxODE4O3N0cm9rZS13aWR0aDoxLjA7Ii8+PC9nPjwhLS1yZXZlcnNlIGxpbmsgTFVTIHRvIFRyYW5zaWZleC0tPjxnIGlkPSJsaW5rX0xVU19UcmFuc2lmZXgiPjxwYXRoIGQ9Ik03MDguMjYsNDQ5LjE0IEM3MjQuMzksNDczLjUyIDc0NS43Miw1MDUuNzYgNzU5LjY1LDUyNi44MSAiIGZpbGw9Im5vbmUiIGlkPSJMVVMtYmFja3RvLVRyYW5zaWZleCIgc3R5bGU9InN0cm9rZTojMTgxODE4O3N0cm9rZS13aWR0aDoxLjA7Ii8+PHBvbHlnb24gZmlsbD0iIzE4MTgxOCIgcG9pbnRzPSI3MDUuMzEsNDQ0LjY5LDcwNi45MzU2LDQ1NC40MDM4LDcwOC4wNjcsNDQ4Ljg2MTIsNzEzLjYwOTYsNDQ5Ljk5MjYsNzA1LjMxLDQ0NC42OSIgc3R5bGU9InN0cm9rZTojMTgxODE4O3N0cm9rZS13aWR0aDoxLjA7Ii8+PC9nPjwhLS1saW5rIExVUyB0byBDRE4tLT48ZyBpZD0ibGlua19MVVNfQ0ROIj48cGF0aCBkPSJNNjg2LDQ0NC42MyBDNjg2LDQ5MC4yMSA2ODYsNTc4LjIyIDY4Niw2MjYuNzcgIiBmaWxsPSJub25lIiBpZD0iTFVTLXRvLUNETiIgc3R5bGU9InN0cm9rZTojMTgxODE4O3N0cm9rZS13aWR0aDoxLjA7Ii8+PHBvbHlnb24gZmlsbD0iIzE4MTgxOCIgcG9pbnRzPSI2ODYsNjMxLjkxLDY5MCw2MjIuOTEsNjg2LDYyNi45MSw2ODIsNjIyLjkxLDY4Niw2MzEuOTEiIHN0eWxlPSJzdHJva2U6IzE4MTgxODtzdHJva2Utd2lkdGg6MS4wOyIvPjwvZz48IS0tcmV2ZXJzZSBsaW5rIExVUyB0byBHaXRodWItLT48ZyBpZD0ibGlua19MVVNfR2l0aHViIj48cGF0aCBkPSJNNjY2LjUyLDQ0OS4xNCBDNjUyLjQxLDQ3My41MiA2MzMuNzQsNTA1Ljc2IDYyMS41Niw1MjYuODEgIiBmaWxsPSJub25lIiBpZD0iTFVTLWJhY2t0by1HaXRodWIiIHN0eWxlPSJzdHJva2U6IzE4MTgxODtzdHJva2Utd2lkdGg6MS4wOyIvPjxwb2x5Z29uIGZpbGw9IiMxODE4MTgiIHBvaW50cz0iNjY5LjEsNDQ0LjY5LDY2MS4xMzUsNDUwLjQ4Myw2NjYuNTk5Myw0NDkuMDE5Nyw2NjguMDYyNiw0NTQuNDg0MSw2NjkuMSw0NDQuNjkiIHN0eWxlPSJzdHJva2U6IzE4MTgxODtzdHJva2Utd2lkdGg6MS4wOyIvPjwvZz48IS0tbGluayBDRE4gdG8gT01XIFNUQi0tPjxnIGlkPSJsaW5rX0NETl9PTVcgU1RCIj48cGF0aCBkPSJNNjg2LDY5Mi4wMyBDNjg2LDcwOC45MiA2ODYsNzMwLjA3IDY4Niw3NDYuNTggIiBmaWxsPSJub25lIiBpZD0iQ0ROLXRvLU9NVyBTVEIiIHN0eWxlPSJzdHJva2U6IzE4MTgxODtzdHJva2Utd2lkdGg6MS4wOyIvPjxwb2x5Z29uIGZpbGw9IiMxODE4MTgiIHBvaW50cz0iNjg2LDc1MS45OSw2OTAsNzQyLjk5LDY4Niw3NDYuOTksNjgyLDc0Mi45OSw2ODYsNzUxLjk5IiBzdHlsZT0ic3Ryb2tlOiMxODE4MTg7c3Ryb2tlLXdpZHRoOjEuMDsiLz48L2c+PCEtLWxpbmsgSmVua2lucyB0byBEZXZlbG9wbWVudC0tPjxnIGlkPSJsaW5rX0plbmtpbnNfRGV2ZWxvcG1lbnQiPjxwYXRoIGQ9Ik05NjUsNDIuMjYgQzk2NSw2Mi4xIDk2NSw5NS40MSA5NjUsMTE4LjkyICIgZmlsbD0ibm9uZSIgaWQ9IkplbmtpbnMtdG8tRGV2ZWxvcG1lbnQiIHN0eWxlPSJzdHJva2U6IzE4MTgxODtzdHJva2Utd2lkdGg6MS4wOyIvPjxwb2x5Z29uIGZpbGw9IiMxODE4MTgiIHBvaW50cz0iOTY1LDEyNC4wOCw5NjksMTE1LjA4LDk2NSwxMTkuMDgsOTYxLDExNS4wOCw5NjUsMTI0LjA4IiBzdHlsZT0ic3Ryb2tlOiMxODE4MTg7c3Ryb2tlLXdpZHRoOjEuMDsiLz48L2c+PCEtLWxpbmsgSmVua2lucyB0byBMYWItLT48ZyBpZD0ibGlua19KZW5raW5zX0xhYiI+PHBhdGggZD0iTTkyOS44LDI5LjM1IEM4NjguMjMsMzYuNTkgNzM3LjMzLDU0LjE3IDYzMCw4My41IEM1ODQuMjMsOTYuMDEgNTMzLjQ1LDExNi4yNiA1MDAuNDcsMTMwLjMgIiBmaWxsPSJub25lIiBpZD0iSmVua2lucy10by1MYWIiIHN0eWxlPSJzdHJva2U6IzE4MTgxODtzdHJva2Utd2lkdGg6MS4wOyIvPjxwb2x5Z29uIGZpbGw9IiMxODE4MTgiIHBvaW50cz0iNDk1Ljc0LDEzMi4zMyw1MDUuNTg3NiwxMzIuNDg3Miw1MDAuMzQwOSwxMzAuMzcyNSw1MDIuNDU1NiwxMjUuMTI1OCw0OTUuNzQsMTMyLjMzIiBzdHlsZT0ic3Ryb2tlOiMxODE4MTg7c3Ryb2tlLXdpZHRoOjEuMDsiLz48L2c+PCEtLWxpbmsgSmVua2lucyB0byBQcm9kdWN0aW9uLS0+PGcgaWQ9ImxpbmtfSmVua2luc19Qcm9kdWN0aW9uIj48cGF0aCBkPSJNOTg4LjI4LDQyIEMxMDE3LjE3LDYyLjQ4IDEwNjYuNzEsOTcuNTkgMTEwMC4xNCwxMjEuMjkgIiBmaWxsPSJub25lIiBpZD0iSmVua2lucy10by1Qcm9kdWN0aW9uIiBzdHlsZT0ic3Ryb2tlOiMxODE4MTg7c3Ryb2tlLXdpZHRoOjEuMDsiLz48cG9seWdvbiBmaWxsPSIjMTgxODE4IiBwb2ludHM9IjExMDQuNTQsMTI0LjQxLDEwOTkuNTE2MSwxMTUuOTM4OSwxMTAwLjQ2MjcsMTIxLjUxNiwxMDk0Ljg4NTYsMTIyLjQ2MjYsMTEwNC41NCwxMjQuNDEiIHN0eWxlPSJzdHJva2U6IzE4MTgxODtzdHJva2Utd2lkdGg6MS4wOyIvPjwvZz48IS0tbGluayBEZXZlbG9wbWVudCB0byBQcm9kdWN0IFN5c3RlbS9TdWItU3lzdGVtcy0tPjxnIGlkPSJsaW5rX0RldmVsb3BtZW50X1Byb2R1Y3QgU3lzdGVtL1N1Yi1TeXN0ZW1zIj48cGF0aCBkPSJNOTI2LjIzLDE2OS42MSBDOTEzLjYsMTc3Ljk0IDkwMC4yMSwxODguMzEgODkwLDIwMCBDODc3LjUyNSwyMTQuMjg1IDg2Ny43NSwyMzMuMTUgODYwLjk4NjIsMjQ4LjgwNjMgQzg2MC4xNDA4LDI1MC43NjMzIDg1OS4zNDI0LDI1Mi42NzAyIDg1OC41OTE2LDI1NC41MTE3IEM4NTguNDAzOSwyNTQuOTcyMSA4NTguMjE5MiwyNTUuNDI4NCA4NTguMDM3NSwyNTUuODgwNCAiIGZpbGw9Im5vbmUiIGlkPSJEZXZlbG9wbWVudC10by1Qcm9kdWN0IFN5c3RlbS9TdWItU3lzdGVtcyIgc3R5bGU9InN0cm9rZTojMTgxODE4O3N0cm9rZS13aWR0aDoxLjA7Ii8+PHBvbHlnb24gZmlsbD0iIzE4MTgxOCIgcG9pbnRzPSI4NTguMDM3NSwyNTUuODgwNCw4NjUuMTA2MSwyNDkuMDIyMiw4NTkuOTAyNywyNTEuMjQxMyw4NTcuNjgzNiwyNDYuMDM3OSw4NTguMDM3NSwyNTUuODgwNCIgc3R5bGU9InN0cm9rZTojMTgxODE4O3N0cm9rZS13aWR0aDoxLjA7Ii8+PC9nPjwhLS1saW5rIExhYiB0byBQcm9kdWN0IFN5c3RlbS9TdWItU3lzdGVtcy0tPjxnIGlkPSJsaW5rX0xhYl9Qcm9kdWN0IFN5c3RlbS9TdWItU3lzdGVtcyI+PHBhdGggZD0iTTQ5NS41OSwxNTguMzYgQzUyOC4zOSwxNjguOTQgNTgyLjIxLDE4NC44MiA2MzAsMTkyIEM2NDEuNjYsMTkzLjc1IDgzMy40LDE5MS45NCA4NDIsMjAwIEM4NDUuMDk3NSwyMDIuOTA1IDg0Ny41NjIyLDIwNi4yNTc1IDg0OS41MDE5LDIwOS45MDY1IEM4NTAuNDcxNywyMTEuNzMxIDg1MS4zMTA0LDIxMy42Mjk3IDg1Mi4wMzEyLDIxNS41ODM2IEM4NTIuMDc2MywyMTUuNzA1NyA4NTIuMTIwOCwyMTUuODI4IDg1Mi4xNjUsMjE1Ljk1MDYgIiBmaWxsPSJub25lIiBpZD0iTGFiLXRvLVByb2R1Y3QgU3lzdGVtL1N1Yi1TeXN0ZW1zIiBzdHlsZT0ic3Ryb2tlOiMxODE4MTg7c3Ryb2tlLXdpZHRoOjEuMDsiLz48cG9seWdvbiBmaWxsPSIjMTgxODE4IiBwb2ludHM9Ijg1Mi4xNjUsMjE1Ljk1MDYsODUyLjg3ODcsMjA2LjEyNzYsODUwLjQ3MDcsMjExLjI0NjQsODQ1LjM1MiwyMDguODM4NCw4NTIuMTY1LDIxNS45NTA2IiBzdHlsZT0ic3Ryb2tlOiMxODE4MTg7c3Ryb2tlLXdpZHRoOjEuMDsiLz48L2c+PCEtLWxpbmsgUHJvZHVjdGlvbiB0byBQcm9kdWN0IFN5c3RlbS9TdWItU3lzdGVtcy0tPjxnIGlkPSJsaW5rX1Byb2R1Y3Rpb25fUHJvZHVjdCBTeXN0ZW0vU3ViLVN5c3RlbXMiPjxwYXRoIGQ9Ik0xMDk2Ljk0LDE2OS42OCBDMTA4MC4wNCwxNzguMjIgMTA1OS41OCwxODcuMTQgMTA0MCwxOTIgQzEwMjMuOCwxOTYuMDIgOTAzLjk5LDE5MC45IDg5MCwyMDAgQzg3NC4xLDIxMC4zMzUgODY0LjIxNzUsMjI5LjA3NSA4NTguMjUzOCwyNDUuNjUzOCBDODU4LjIwNzIsMjQ1Ljc4MzMgODU4LjE2MDgsMjQ1LjkxMjcgODU4LjExNDcsMjQ2LjA0MTkgIiBmaWxsPSJub25lIiBpZD0iUHJvZHVjdGlvbi10by1Qcm9kdWN0IFN5c3RlbS9TdWItU3lzdGVtcyIgc3R5bGU9InN0cm9rZTojMTgxODE4O3N0cm9rZS13aWR0aDoxLjA7Ii8+PHBvbHlnb24gZmlsbD0iIzE4MTgxOCIgcG9pbnRzPSI4NTguMTE0NywyNDYuMDQxOSw4NjQuOTA2NCwyMzguOTA5NCw4NTkuNzk0OCwyNDEuMzMyNyw4NTcuMzcxNiwyMzYuMjIxMSw4NTguMTE0NywyNDYuMDQxOSIgc3R5bGU9InN0cm9rZTojMTgxODE4O3N0cm9rZS13aWR0aDoxLjA7Ii8+PC9nPjwhLS1saW5rIExHIENvcnAgUE0gdG8gVHJhbnNpZmV4LS0+PGcgaWQ9ImxpbmtfTEcgQ29ycCBQTV9UcmFuc2lmZXgiPjxwYXRoIGQ9Ik04ODEuNjUsNDQ4LjM4IEM4NTYuNzksNDcxLjUgODI0LjAxLDUwMS45OSA4MDEuMTgsNTIzLjIyICIgZmlsbD0ibm9uZSIgaWQ9IkxHIENvcnAgUE0tdG8tVHJhbnNpZmV4IiBzdHlsZT0ic3Ryb2tlOiNGRjAwMDA7c3Ryb2tlLXdpZHRoOjEuMDsiLz48cG9seWdvbiBmaWxsPSIjRkYwMDAwIiBwb2ludHM9Ijc5Ny4zMyw1MjYuODEsODA2LjY0NSw1MjMuNjExNSw4MDAuOTkxOSw1MjMuNDA1Niw4MDEuMTk3OSw1MTcuNzUyNCw3OTcuMzMsNTI2LjgxIiBzdHlsZT0ic3Ryb2tlOiNGRjAwMDA7c3Ryb2tlLXdpZHRoOjEuMDsiLz48L2c+PCEtLWxpbmsgREUgdG8gQVVJLS0+PGcgaWQ9ImxpbmtfREVfQVVJIj48cGF0aCBkPSJNNjg2LDE5Mi4xOCBDNjg2LDIxMS44OCA2ODYsMjM0LjQ1IDY4NiwyNTEuNTcgIiBmaWxsPSJub25lIiBpZD0iREUtdG8tQVVJIiBzdHlsZT0ic3Ryb2tlOiNGRjAwMDA7c3Ryb2tlLXdpZHRoOjEuMDsiLz48cG9seWdvbiBmaWxsPSIjRkYwMDAwIiBwb2ludHM9IjY4NiwyNTYuNyw2OTAsMjQ3LjcsNjg2LDI1MS43LDY4MiwyNDcuNyw2ODYsMjU2LjciIHN0eWxlPSJzdHJva2U6I0ZGMDAwMDtzdHJva2Utd2lkdGg6MS4wOyIvPjwvZz48IS0tbGluayBDUE0gdG8gVHJhbnNpZmV4LS0+PGcgaWQ9ImxpbmtfQ1BNX1RyYW5zaWZleCI+PHBhdGggZD0iTTk4Ny4zMyw0NTQuODkgQzk4MS43LDQ1OS4yNSA5NzUuODUsNDYzLjQgOTcwLDQ2NyBDOTI1LjgyLDQ5NC4xOSA4NzAuOTYsNTE2LjEyIDgzMC41Miw1MzAuMzYgIiBmaWxsPSJub25lIiBpZD0iQ1BNLXRvLVRyYW5zaWZleCIgc3R5bGU9InN0cm9rZTojRkYwMDAwO3N0cm9rZS13aWR0aDoxLjA7Ii8+PHBvbHlnb24gZmlsbD0iI0ZGMDAwMCIgcG9pbnRzPSI4MjUuNjcsNTMyLjA1LDgzNS40ODQzLDUzMi44NzQ4LDgzMC4zOTMxLDUzMC40MDkxLDgzMi44NTg4LDUyNS4zMTc5LDgyNS42Nyw1MzIuMDUiIHN0eWxlPSJzdHJva2U6I0ZGMDAwMDtzdHJva2Utd2lkdGg6MS4wOyIvPjwvZz48IS0tU1JDPVtaTEREWnZpbTRCdHhMdXA4ZkpzV2xRLWdJYmI4ZXJJUkRYOTFGTUd2RTMxWGhKTFpvdlpUSGJOX1VzcUppaXVzX1UyME9Ed1J6dVJkR1ZGd1lSUzhJT3hGQTlOa2EybUtiYkVKbTB5NnhqZjVJMUtnZjJwMk5iY2hrYmllSUxaT09jeTVqVW1kT3RlSWxFVnhEcUFrU2FMV0hIUFJtd3JHVERPdmF1bmU3LXFqNUNWVU9sVDctREQwalVfZHlrZWE2d0VROEgzVTNGR0FOOWJoTmpVZTdSdDZNREc5a2UwLThwcTl3YmFqclQyUzNLdlp0WEozRlhxVi15Y2dMZnJNdjVqZEl1RDhhQ25EcnJrWmc4TG9iRzNsT0x3azBkS2NfS1VEQjFTUGpPRl9ZMFNnVFNGVFUwTVFQcjVadkxsa29vOWdrUEMzbWN1ZnhFRG1vWmNrUm1zZE5YcG1VbU1fT1BjWVdzV1hveHl1ZHRUb3ljbkdNV3U3OFY1emk3RnVzQmVQWjlRa3gtbHc2bkpSa3llN3V5UTdERnRlUG1CY1JuX0lEN09EalJISEItSFBOa2ZDY2FSc19YdnlyTU1kZUNWb25JOVU4NjZwQllobnFSQUJwZTNfeFNYT2FGaUZNa0puUnBSWmpMTjZfSFBCbzlKSGk1YWRLb2JKMHJicFQyS05Wd1JxeVNLOFktUjZsT055OTdVcWkyRlBQWnFydlFZYkVlUlZ6TzRNdkRPSVNJSmIyeVBZNnFYdEN1RER2TUU5cFlEVkg4MVZGWVQtZFZlQl0tLT48L2c+PC9zdmc+;" vertex="1" parent="1">
            <mxGeometry x="2610" y="-1060" width="1247" height="855" as="geometry" />
          </mxCell>
        </UserObject>
        <mxCell id="RmYFNsJNdAvTuOu2XjMB-41" value="Legend" style="swimlane;" vertex="1" parent="1">
          <mxGeometry x="2360" y="-1040" width="200" height="630" as="geometry" />
        </mxCell>
        <mxCell id="RmYFNsJNdAvTuOu2XjMB-42" value="LG component" style="rounded=0;whiteSpace=wrap;html=1;fillColor=#d5e8d4;strokeColor=#82b366;" vertex="1" parent="RmYFNsJNdAvTuOu2XjMB-41">
          <mxGeometry x="40" y="50" width="120" height="60" as="geometry" />
        </mxCell>
        <mxCell id="RmYFNsJNdAvTuOu2XjMB-43" value="Vendor component" style="rounded=0;whiteSpace=wrap;html=1;fillColor=#dae8fc;strokeColor=#6c8ebf;" vertex="1" parent="RmYFNsJNdAvTuOu2XjMB-41">
          <mxGeometry x="40" y="130" width="120" height="60" as="geometry" />
        </mxCell>
        <mxCell id="RmYFNsJNdAvTuOu2XjMB-44" value="Client" style="rounded=0;whiteSpace=wrap;html=1;fillColor=#e1d5e7;strokeColor=#9673a6;" vertex="1" parent="RmYFNsJNdAvTuOu2XjMB-41">
          <mxGeometry x="40" y="210" width="120" height="60" as="geometry" />
        </mxCell>
        <mxCell id="RmYFNsJNdAvTuOu2XjMB-45" value="&lt;font style=&quot;font-size: 16px;&quot;&gt;Actor&lt;/font&gt;" style="shape=umlActor;verticalLabelPosition=bottom;verticalAlign=top;html=1;outlineConnect=0;" vertex="1" parent="RmYFNsJNdAvTuOu2XjMB-41">
          <mxGeometry x="85" y="300" width="30" height="60" as="geometry" />
        </mxCell>
        <mxCell id="RmYFNsJNdAvTuOu2XjMB-52" value="" style="endArrow=classic;html=1;rounded=0;strokeColor=#B20000;" edge="1" parent="RmYFNsJNdAvTuOu2XjMB-41">
          <mxGeometry relative="1" as="geometry">
            <mxPoint x="50" y="450" as="sourcePoint" />
            <mxPoint x="150" y="450" as="targetPoint" />
          </mxGeometry>
        </mxCell>
        <mxCell id="RmYFNsJNdAvTuOu2XjMB-53" value="Operations" style="edgeLabel;resizable=0;html=1;align=center;verticalAlign=middle;" connectable="0" vertex="1" parent="RmYFNsJNdAvTuOu2XjMB-52">
          <mxGeometry relative="1" as="geometry" />
        </mxCell>
        <mxCell id="RmYFNsJNdAvTuOu2XjMB-55" value="" style="endArrow=classic;html=1;rounded=0;" edge="1" parent="RmYFNsJNdAvTuOu2XjMB-41">
          <mxGeometry relative="1" as="geometry">
            <mxPoint x="50" y="490" as="sourcePoint" />
            <mxPoint x="150" y="490" as="targetPoint" />
          </mxGeometry>
        </mxCell>
        <mxCell id="RmYFNsJNdAvTuOu2XjMB-56" value="Data flow" style="edgeLabel;resizable=0;html=1;align=center;verticalAlign=middle;" connectable="0" vertex="1" parent="RmYFNsJNdAvTuOu2XjMB-55">
          <mxGeometry relative="1" as="geometry" />
        </mxCell>
        <mxCell id="RmYFNsJNdAvTuOu2XjMB-71" value="Production Stand" style="whiteSpace=wrap;strokeWidth=2;verticalAlign=top;" vertex="1" parent="1">
          <mxGeometry x="2360" y="20" width="385" height="252" as="geometry" />
        </mxCell>
        <mxCell id="RmYFNsJNdAvTuOu2XjMB-72" value="Acceptance Testing" style="whiteSpace=wrap;strokeWidth=2;" vertex="1" parent="RmYFNsJNdAvTuOu2XjMB-71">
          <mxGeometry x="124" y="117" width="153" height="34" as="geometry" />
        </mxCell>
        <mxCell id="RmYFNsJNdAvTuOu2XjMB-73" value="Jenkins CI/CD" style="whiteSpace=wrap;strokeWidth=2;" vertex="1" parent="RmYFNsJNdAvTuOu2XjMB-71">
          <mxGeometry x="143" y="33" width="115" height="34" as="geometry" />
        </mxCell>
        <mxCell id="RmYFNsJNdAvTuOu2XjMB-74" value="Product System/Sub-Systems (Production)" style="whiteSpace=wrap;strokeWidth=2;" vertex="1" parent="RmYFNsJNdAvTuOu2XjMB-71">
          <mxGeometry x="43" y="201" width="315" height="34" as="geometry" />
        </mxCell>
        <mxCell id="RmYFNsJNdAvTuOu2XjMB-75" value="" style="curved=1;startArrow=none;endArrow=block;exitX=0.5;exitY=1;entryX=0.5;entryY=0;rounded=0;" edge="1" parent="RmYFNsJNdAvTuOu2XjMB-71" source="RmYFNsJNdAvTuOu2XjMB-73" target="RmYFNsJNdAvTuOu2XjMB-72">
          <mxGeometry relative="1" as="geometry">
            <Array as="points" />
          </mxGeometry>
        </mxCell>
        <mxCell id="RmYFNsJNdAvTuOu2XjMB-76" value="" style="curved=1;startArrow=none;endArrow=block;exitX=0.5;exitY=1;entryX=0.5;entryY=0;rounded=0;" edge="1" parent="RmYFNsJNdAvTuOu2XjMB-71" source="RmYFNsJNdAvTuOu2XjMB-72" target="RmYFNsJNdAvTuOu2XjMB-74">
          <mxGeometry relative="1" as="geometry">
            <Array as="points" />
          </mxGeometry>
        </mxCell>
        <mxCell id="RmYFNsJNdAvTuOu2XjMB-77" value="Lab Stand" style="whiteSpace=wrap;strokeWidth=2;verticalAlign=top;" vertex="1" parent="1">
          <mxGeometry x="2795" y="20" width="454" height="252" as="geometry" />
        </mxCell>
        <mxCell id="RmYFNsJNdAvTuOu2XjMB-78" value="Integration Testing" style="whiteSpace=wrap;strokeWidth=2;" vertex="1" parent="RmYFNsJNdAvTuOu2XjMB-77">
          <mxGeometry x="72" y="117" width="149" height="34" as="geometry" />
        </mxCell>
        <mxCell id="RmYFNsJNdAvTuOu2XjMB-79" value="Jenkins CI/CD" style="whiteSpace=wrap;strokeWidth=2;" vertex="1" parent="RmYFNsJNdAvTuOu2XjMB-77">
          <mxGeometry x="181" y="33" width="115" height="34" as="geometry" />
        </mxCell>
        <mxCell id="RmYFNsJNdAvTuOu2XjMB-80" value="Product System/Sub-Systems (Lab)" style="whiteSpace=wrap;strokeWidth=2;" vertex="1" parent="RmYFNsJNdAvTuOu2XjMB-77">
          <mxGeometry x="107" y="201" width="264" height="34" as="geometry" />
        </mxCell>
        <mxCell id="RmYFNsJNdAvTuOu2XjMB-81" value="System Testing" style="whiteSpace=wrap;strokeWidth=2;" vertex="1" parent="RmYFNsJNdAvTuOu2XjMB-77">
          <mxGeometry x="271" y="117" width="120" height="34" as="geometry" />
        </mxCell>
        <mxCell id="RmYFNsJNdAvTuOu2XjMB-82" value="" style="curved=1;startArrow=none;endArrow=block;exitX=0.1742575698757763;exitY=1;entryX=0.49750943791946306;entryY=0;rounded=0;" edge="1" parent="RmYFNsJNdAvTuOu2XjMB-77" source="RmYFNsJNdAvTuOu2XjMB-79" target="RmYFNsJNdAvTuOu2XjMB-78">
          <mxGeometry relative="1" as="geometry">
            <Array as="points">
              <mxPoint x="146" y="92" />
            </Array>
          </mxGeometry>
        </mxCell>
        <mxCell id="RmYFNsJNdAvTuOu2XjMB-83" value="" style="curved=1;startArrow=none;endArrow=block;exitX=0.49750943791946306;exitY=1;entryX=0.35621068384740256;entryY=0;rounded=0;" edge="1" parent="RmYFNsJNdAvTuOu2XjMB-77" source="RmYFNsJNdAvTuOu2XjMB-78" target="RmYFNsJNdAvTuOu2XjMB-80">
          <mxGeometry relative="1" as="geometry">
            <Array as="points">
              <mxPoint x="146" y="176" />
            </Array>
          </mxGeometry>
        </mxCell>
        <mxCell id="RmYFNsJNdAvTuOu2XjMB-84" value="" style="curved=1;startArrow=none;endArrow=block;exitX=0.8236364518633541;exitY=1;entryX=0.4969075520833333;entryY=0;rounded=0;" edge="1" parent="RmYFNsJNdAvTuOu2XjMB-77" source="RmYFNsJNdAvTuOu2XjMB-79" target="RmYFNsJNdAvTuOu2XjMB-81">
          <mxGeometry relative="1" as="geometry">
            <Array as="points">
              <mxPoint x="331" y="92" />
            </Array>
          </mxGeometry>
        </mxCell>
        <mxCell id="RmYFNsJNdAvTuOu2XjMB-85" value="" style="curved=1;startArrow=none;endArrow=block;exitX=0.4969075520833333;exitY=1;entryX=0.6390840604707793;entryY=0;rounded=0;" edge="1" parent="RmYFNsJNdAvTuOu2XjMB-77" source="RmYFNsJNdAvTuOu2XjMB-81" target="RmYFNsJNdAvTuOu2XjMB-80">
          <mxGeometry relative="1" as="geometry">
            <Array as="points">
              <mxPoint x="331" y="176" />
            </Array>
          </mxGeometry>
        </mxCell>
        <mxCell id="RmYFNsJNdAvTuOu2XjMB-86" value="Development Stand" style="whiteSpace=wrap;strokeWidth=2;verticalAlign=top;" vertex="1" parent="1">
          <mxGeometry x="3299" y="20" width="403" height="252" as="geometry" />
        </mxCell>
        <mxCell id="RmYFNsJNdAvTuOu2XjMB-87" value="Unit Testing" style="whiteSpace=wrap;strokeWidth=2;" vertex="1" parent="RmYFNsJNdAvTuOu2XjMB-86">
          <mxGeometry x="159" y="117" width="100" height="34" as="geometry" />
        </mxCell>
        <mxCell id="RmYFNsJNdAvTuOu2XjMB-88" value="Jenkins CI/CD" style="whiteSpace=wrap;strokeWidth=2;" vertex="1" parent="RmYFNsJNdAvTuOu2XjMB-86">
          <mxGeometry x="152" y="33" width="115" height="34" as="geometry" />
        </mxCell>
        <mxCell id="RmYFNsJNdAvTuOu2XjMB-89" value="Product System/Sub-Systems (Development)" style="whiteSpace=wrap;strokeWidth=2;" vertex="1" parent="RmYFNsJNdAvTuOu2XjMB-86">
          <mxGeometry x="43" y="201" width="333" height="34" as="geometry" />
        </mxCell>
        <mxCell id="RmYFNsJNdAvTuOu2XjMB-90" value="" style="curved=1;startArrow=none;endArrow=block;exitX=0.4983695652173913;exitY=1;entryX=0.503125;entryY=0;rounded=0;" edge="1" parent="RmYFNsJNdAvTuOu2XjMB-86" source="RmYFNsJNdAvTuOu2XjMB-88" target="RmYFNsJNdAvTuOu2XjMB-87">
          <mxGeometry relative="1" as="geometry">
            <Array as="points" />
          </mxGeometry>
        </mxCell>
        <mxCell id="RmYFNsJNdAvTuOu2XjMB-91" value="" style="curved=1;startArrow=none;endArrow=block;exitX=0.503125;exitY=1;entryX=0.4994369369369369;entryY=0;rounded=0;" edge="1" parent="RmYFNsJNdAvTuOu2XjMB-86" source="RmYFNsJNdAvTuOu2XjMB-87" target="RmYFNsJNdAvTuOu2XjMB-89">
          <mxGeometry relative="1" as="geometry">
            <Array as="points" />
          </mxGeometry>
        </mxCell>
        <mxCell id="RmYFNsJNdAvTuOu2XjMB-92" value="Production Stand" style="whiteSpace=wrap;strokeWidth=2;verticalAlign=top;" vertex="1" parent="1">
          <mxGeometry x="2360" y="20" width="385" height="252" as="geometry" />
        </mxCell>
        <mxCell id="RmYFNsJNdAvTuOu2XjMB-93" value="Acceptance Testing" style="whiteSpace=wrap;strokeWidth=2;" vertex="1" parent="RmYFNsJNdAvTuOu2XjMB-92">
          <mxGeometry x="124" y="117" width="153" height="34" as="geometry" />
        </mxCell>
        <mxCell id="RmYFNsJNdAvTuOu2XjMB-94" value="Jenkins CI/CD" style="whiteSpace=wrap;strokeWidth=2;" vertex="1" parent="RmYFNsJNdAvTuOu2XjMB-92">
          <mxGeometry x="143" y="33" width="115" height="34" as="geometry" />
        </mxCell>
        <mxCell id="RmYFNsJNdAvTuOu2XjMB-95" value="Product System/Sub-Systems (Production)" style="whiteSpace=wrap;strokeWidth=2;" vertex="1" parent="RmYFNsJNdAvTuOu2XjMB-92">
          <mxGeometry x="43" y="201" width="315" height="34" as="geometry" />
        </mxCell>
        <mxCell id="RmYFNsJNdAvTuOu2XjMB-96" value="" style="curved=1;startArrow=none;endArrow=block;exitX=0.5;exitY=1;entryX=0.5;entryY=0;rounded=0;" edge="1" parent="RmYFNsJNdAvTuOu2XjMB-92" source="RmYFNsJNdAvTuOu2XjMB-94" target="RmYFNsJNdAvTuOu2XjMB-93">
          <mxGeometry relative="1" as="geometry">
            <Array as="points" />
          </mxGeometry>
        </mxCell>
        <mxCell id="RmYFNsJNdAvTuOu2XjMB-97" value="" style="curved=1;startArrow=none;endArrow=block;exitX=0.5;exitY=1;entryX=0.5;entryY=0;rounded=0;" edge="1" parent="RmYFNsJNdAvTuOu2XjMB-92" source="RmYFNsJNdAvTuOu2XjMB-93" target="RmYFNsJNdAvTuOu2XjMB-95">
          <mxGeometry relative="1" as="geometry">
            <Array as="points" />
          </mxGeometry>
        </mxCell>
        <mxCell id="RmYFNsJNdAvTuOu2XjMB-98" value="Lab Stand" style="whiteSpace=wrap;strokeWidth=2;verticalAlign=top;" vertex="1" parent="1">
          <mxGeometry x="2795" y="20" width="454" height="252" as="geometry" />
        </mxCell>
        <mxCell id="RmYFNsJNdAvTuOu2XjMB-99" value="Integration Testing" style="whiteSpace=wrap;strokeWidth=2;" vertex="1" parent="RmYFNsJNdAvTuOu2XjMB-98">
          <mxGeometry x="72" y="117" width="149" height="34" as="geometry" />
        </mxCell>
        <mxCell id="RmYFNsJNdAvTuOu2XjMB-100" value="Jenkins CI/CD" style="whiteSpace=wrap;strokeWidth=2;" vertex="1" parent="RmYFNsJNdAvTuOu2XjMB-98">
          <mxGeometry x="181" y="33" width="115" height="34" as="geometry" />
        </mxCell>
        <mxCell id="RmYFNsJNdAvTuOu2XjMB-101" value="Product System/Sub-Systems (Lab)" style="whiteSpace=wrap;strokeWidth=2;" vertex="1" parent="RmYFNsJNdAvTuOu2XjMB-98">
          <mxGeometry x="107" y="201" width="264" height="34" as="geometry" />
        </mxCell>
        <mxCell id="RmYFNsJNdAvTuOu2XjMB-102" value="System Testing" style="whiteSpace=wrap;strokeWidth=2;" vertex="1" parent="RmYFNsJNdAvTuOu2XjMB-98">
          <mxGeometry x="271" y="117" width="120" height="34" as="geometry" />
        </mxCell>
        <mxCell id="RmYFNsJNdAvTuOu2XjMB-103" value="" style="curved=1;startArrow=none;endArrow=block;exitX=0.1742575698757763;exitY=1;entryX=0.49750943791946306;entryY=0;rounded=0;" edge="1" parent="RmYFNsJNdAvTuOu2XjMB-98" source="RmYFNsJNdAvTuOu2XjMB-100" target="RmYFNsJNdAvTuOu2XjMB-99">
          <mxGeometry relative="1" as="geometry">
            <Array as="points">
              <mxPoint x="146" y="92" />
            </Array>
          </mxGeometry>
        </mxCell>
        <mxCell id="RmYFNsJNdAvTuOu2XjMB-104" value="" style="curved=1;startArrow=none;endArrow=block;exitX=0.49750943791946306;exitY=1;entryX=0.35621068384740256;entryY=0;rounded=0;" edge="1" parent="RmYFNsJNdAvTuOu2XjMB-98" source="RmYFNsJNdAvTuOu2XjMB-99" target="RmYFNsJNdAvTuOu2XjMB-101">
          <mxGeometry relative="1" as="geometry">
            <Array as="points">
              <mxPoint x="146" y="176" />
            </Array>
          </mxGeometry>
        </mxCell>
        <mxCell id="RmYFNsJNdAvTuOu2XjMB-105" value="" style="curved=1;startArrow=none;endArrow=block;exitX=0.8236364518633541;exitY=1;entryX=0.4969075520833333;entryY=0;rounded=0;" edge="1" parent="RmYFNsJNdAvTuOu2XjMB-98" source="RmYFNsJNdAvTuOu2XjMB-100" target="RmYFNsJNdAvTuOu2XjMB-102">
          <mxGeometry relative="1" as="geometry">
            <Array as="points">
              <mxPoint x="331" y="92" />
            </Array>
          </mxGeometry>
        </mxCell>
        <mxCell id="RmYFNsJNdAvTuOu2XjMB-106" value="" style="curved=1;startArrow=none;endArrow=block;exitX=0.4969075520833333;exitY=1;entryX=0.6390840604707793;entryY=0;rounded=0;" edge="1" parent="RmYFNsJNdAvTuOu2XjMB-98" source="RmYFNsJNdAvTuOu2XjMB-102" target="RmYFNsJNdAvTuOu2XjMB-101">
          <mxGeometry relative="1" as="geometry">
            <Array as="points">
              <mxPoint x="331" y="176" />
            </Array>
          </mxGeometry>
        </mxCell>
        <mxCell id="RmYFNsJNdAvTuOu2XjMB-107" value="Development Stand" style="whiteSpace=wrap;strokeWidth=2;verticalAlign=top;" vertex="1" parent="1">
          <mxGeometry x="3299" y="20" width="403" height="252" as="geometry" />
        </mxCell>
        <mxCell id="RmYFNsJNdAvTuOu2XjMB-108" value="Unit Testing" style="whiteSpace=wrap;strokeWidth=2;" vertex="1" parent="RmYFNsJNdAvTuOu2XjMB-107">
          <mxGeometry x="159" y="117" width="100" height="34" as="geometry" />
        </mxCell>
        <mxCell id="RmYFNsJNdAvTuOu2XjMB-109" value="Jenkins CI/CD" style="whiteSpace=wrap;strokeWidth=2;" vertex="1" parent="RmYFNsJNdAvTuOu2XjMB-107">
          <mxGeometry x="152" y="33" width="115" height="34" as="geometry" />
        </mxCell>
        <mxCell id="RmYFNsJNdAvTuOu2XjMB-110" value="Product System/Sub-Systems (Development)" style="whiteSpace=wrap;strokeWidth=2;" vertex="1" parent="RmYFNsJNdAvTuOu2XjMB-107">
          <mxGeometry x="43" y="201" width="333" height="34" as="geometry" />
        </mxCell>
        <mxCell id="RmYFNsJNdAvTuOu2XjMB-111" value="" style="curved=1;startArrow=none;endArrow=block;exitX=0.4983695652173913;exitY=1;entryX=0.503125;entryY=0;rounded=0;" edge="1" parent="RmYFNsJNdAvTuOu2XjMB-107" source="RmYFNsJNdAvTuOu2XjMB-109" target="RmYFNsJNdAvTuOu2XjMB-108">
          <mxGeometry relative="1" as="geometry">
            <Array as="points" />
          </mxGeometry>
        </mxCell>
        <mxCell id="RmYFNsJNdAvTuOu2XjMB-112" value="" style="curved=1;startArrow=none;endArrow=block;exitX=0.503125;exitY=1;entryX=0.4994369369369369;entryY=0;rounded=0;" edge="1" parent="RmYFNsJNdAvTuOu2XjMB-107" source="RmYFNsJNdAvTuOu2XjMB-108" target="RmYFNsJNdAvTuOu2XjMB-110">
          <mxGeometry relative="1" as="geometry">
            <Array as="points" />
          </mxGeometry>
        </mxCell>
        <mxCell id="RmYFNsJNdAvTuOu2XjMB-113" value="Production Stand" style="whiteSpace=wrap;strokeWidth=2;verticalAlign=top;" vertex="1" parent="1">
          <mxGeometry x="2360" y="20" width="385" height="252" as="geometry" />
        </mxCell>
        <mxCell id="RmYFNsJNdAvTuOu2XjMB-114" value="Acceptance Testing" style="whiteSpace=wrap;strokeWidth=2;" vertex="1" parent="RmYFNsJNdAvTuOu2XjMB-113">
          <mxGeometry x="124" y="117" width="153" height="34" as="geometry" />
        </mxCell>
        <mxCell id="RmYFNsJNdAvTuOu2XjMB-115" value="Jenkins CI/CD" style="whiteSpace=wrap;strokeWidth=2;" vertex="1" parent="RmYFNsJNdAvTuOu2XjMB-113">
          <mxGeometry x="143" y="33" width="115" height="34" as="geometry" />
        </mxCell>
        <mxCell id="RmYFNsJNdAvTuOu2XjMB-116" value="Product System/Sub-Systems (Production)" style="whiteSpace=wrap;strokeWidth=2;" vertex="1" parent="RmYFNsJNdAvTuOu2XjMB-113">
          <mxGeometry x="43" y="201" width="315" height="34" as="geometry" />
        </mxCell>
        <mxCell id="RmYFNsJNdAvTuOu2XjMB-117" value="" style="curved=1;startArrow=none;endArrow=block;exitX=0.5;exitY=1;entryX=0.5;entryY=0;rounded=0;" edge="1" parent="RmYFNsJNdAvTuOu2XjMB-113" source="RmYFNsJNdAvTuOu2XjMB-115" target="RmYFNsJNdAvTuOu2XjMB-114">
          <mxGeometry relative="1" as="geometry">
            <Array as="points" />
          </mxGeometry>
        </mxCell>
        <mxCell id="RmYFNsJNdAvTuOu2XjMB-118" value="" style="curved=1;startArrow=none;endArrow=block;exitX=0.5;exitY=1;entryX=0.5;entryY=0;rounded=0;" edge="1" parent="RmYFNsJNdAvTuOu2XjMB-113" source="RmYFNsJNdAvTuOu2XjMB-114" target="RmYFNsJNdAvTuOu2XjMB-116">
          <mxGeometry relative="1" as="geometry">
            <Array as="points" />
          </mxGeometry>
        </mxCell>
        <mxCell id="RmYFNsJNdAvTuOu2XjMB-119" value="Lab Stand" style="whiteSpace=wrap;strokeWidth=2;verticalAlign=top;" vertex="1" parent="1">
          <mxGeometry x="2795" y="20" width="454" height="252" as="geometry" />
        </mxCell>
        <mxCell id="RmYFNsJNdAvTuOu2XjMB-120" value="Integration Testing" style="whiteSpace=wrap;strokeWidth=2;" vertex="1" parent="RmYFNsJNdAvTuOu2XjMB-119">
          <mxGeometry x="72" y="117" width="149" height="34" as="geometry" />
        </mxCell>
        <mxCell id="RmYFNsJNdAvTuOu2XjMB-121" value="Jenkins CI/CD" style="whiteSpace=wrap;strokeWidth=2;" vertex="1" parent="RmYFNsJNdAvTuOu2XjMB-119">
          <mxGeometry x="181" y="33" width="115" height="34" as="geometry" />
        </mxCell>
        <mxCell id="RmYFNsJNdAvTuOu2XjMB-122" value="Product System/Sub-Systems (Lab)" style="whiteSpace=wrap;strokeWidth=2;" vertex="1" parent="RmYFNsJNdAvTuOu2XjMB-119">
          <mxGeometry x="107" y="201" width="264" height="34" as="geometry" />
        </mxCell>
        <mxCell id="RmYFNsJNdAvTuOu2XjMB-123" value="System Testing" style="whiteSpace=wrap;strokeWidth=2;" vertex="1" parent="RmYFNsJNdAvTuOu2XjMB-119">
          <mxGeometry x="271" y="117" width="120" height="34" as="geometry" />
        </mxCell>
        <mxCell id="RmYFNsJNdAvTuOu2XjMB-124" value="" style="curved=1;startArrow=none;endArrow=block;exitX=0.1742575698757763;exitY=1;entryX=0.49750943791946306;entryY=0;rounded=0;" edge="1" parent="RmYFNsJNdAvTuOu2XjMB-119" source="RmYFNsJNdAvTuOu2XjMB-121" target="RmYFNsJNdAvTuOu2XjMB-120">
          <mxGeometry relative="1" as="geometry">
            <Array as="points">
              <mxPoint x="146" y="92" />
            </Array>
          </mxGeometry>
        </mxCell>
        <mxCell id="RmYFNsJNdAvTuOu2XjMB-125" value="" style="curved=1;startArrow=none;endArrow=block;exitX=0.49750943791946306;exitY=1;entryX=0.35621068384740256;entryY=0;rounded=0;" edge="1" parent="RmYFNsJNdAvTuOu2XjMB-119" source="RmYFNsJNdAvTuOu2XjMB-120" target="RmYFNsJNdAvTuOu2XjMB-122">
          <mxGeometry relative="1" as="geometry">
            <Array as="points">
              <mxPoint x="146" y="176" />
            </Array>
          </mxGeometry>
        </mxCell>
        <mxCell id="RmYFNsJNdAvTuOu2XjMB-126" value="" style="curved=1;startArrow=none;endArrow=block;exitX=0.8236364518633541;exitY=1;entryX=0.4969075520833333;entryY=0;rounded=0;" edge="1" parent="RmYFNsJNdAvTuOu2XjMB-119" source="RmYFNsJNdAvTuOu2XjMB-121" target="RmYFNsJNdAvTuOu2XjMB-123">
          <mxGeometry relative="1" as="geometry">
            <Array as="points">
              <mxPoint x="331" y="92" />
            </Array>
          </mxGeometry>
        </mxCell>
        <mxCell id="RmYFNsJNdAvTuOu2XjMB-127" value="" style="curved=1;startArrow=none;endArrow=block;exitX=0.4969075520833333;exitY=1;entryX=0.6390840604707793;entryY=0;rounded=0;" edge="1" parent="RmYFNsJNdAvTuOu2XjMB-119" source="RmYFNsJNdAvTuOu2XjMB-123" target="RmYFNsJNdAvTuOu2XjMB-122">
          <mxGeometry relative="1" as="geometry">
            <Array as="points">
              <mxPoint x="331" y="176" />
            </Array>
          </mxGeometry>
        </mxCell>
        <mxCell id="RmYFNsJNdAvTuOu2XjMB-128" value="Development Stand" style="whiteSpace=wrap;strokeWidth=2;verticalAlign=top;" vertex="1" parent="1">
          <mxGeometry x="3299" y="20" width="403" height="252" as="geometry" />
        </mxCell>
        <mxCell id="RmYFNsJNdAvTuOu2XjMB-129" value="Unit Testing" style="whiteSpace=wrap;strokeWidth=2;" vertex="1" parent="RmYFNsJNdAvTuOu2XjMB-128">
          <mxGeometry x="159" y="117" width="100" height="34" as="geometry" />
        </mxCell>
        <mxCell id="RmYFNsJNdAvTuOu2XjMB-130" value="Jenkins CI/CD" style="whiteSpace=wrap;strokeWidth=2;" vertex="1" parent="RmYFNsJNdAvTuOu2XjMB-128">
          <mxGeometry x="152" y="33" width="115" height="34" as="geometry" />
        </mxCell>
        <mxCell id="RmYFNsJNdAvTuOu2XjMB-131" value="Product System/Sub-Systems (Development)" style="whiteSpace=wrap;strokeWidth=2;" vertex="1" parent="RmYFNsJNdAvTuOu2XjMB-128">
          <mxGeometry x="43" y="201" width="333" height="34" as="geometry" />
        </mxCell>
        <mxCell id="RmYFNsJNdAvTuOu2XjMB-132" value="" style="curved=1;startArrow=none;endArrow=block;exitX=0.4983695652173913;exitY=1;entryX=0.503125;entryY=0;rounded=0;" edge="1" parent="RmYFNsJNdAvTuOu2XjMB-128" source="RmYFNsJNdAvTuOu2XjMB-130" target="RmYFNsJNdAvTuOu2XjMB-129">
          <mxGeometry relative="1" as="geometry">
            <Array as="points" />
          </mxGeometry>
        </mxCell>
        <mxCell id="RmYFNsJNdAvTuOu2XjMB-133" value="" style="curved=1;startArrow=none;endArrow=block;exitX=0.503125;exitY=1;entryX=0.4994369369369369;entryY=0;rounded=0;" edge="1" parent="RmYFNsJNdAvTuOu2XjMB-128" source="RmYFNsJNdAvTuOu2XjMB-129" target="RmYFNsJNdAvTuOu2XjMB-131">
          <mxGeometry relative="1" as="geometry">
            <Array as="points" />
          </mxGeometry>
        </mxCell>
        <mxCell id="RmYFNsJNdAvTuOu2XjMB-140" value="" style="edgeStyle=orthogonalEdgeStyle;rounded=0;orthogonalLoop=1;jettySize=auto;html=1;fillColor=#e51400;strokeColor=#B20000;entryX=0.25;entryY=0;entryDx=0;entryDy=0;" edge="1" parent="1" source="RmYFNsJNdAvTuOu2XjMB-141" target="RmYFNsJNdAvTuOu2XjMB-151">
          <mxGeometry relative="1" as="geometry" />
        </mxCell>
        <mxCell id="RmYFNsJNdAvTuOu2XjMB-141" value="&lt;font style=&quot;font-size: 16px;&quot;&gt;LG Corp PM&lt;/font&gt;" style="shape=umlActor;verticalLabelPosition=bottom;verticalAlign=top;html=1;outlineConnect=0;" vertex="1" parent="1">
          <mxGeometry x="2550" y="430" width="30" height="60" as="geometry" />
        </mxCell>
        <mxCell id="RmYFNsJNdAvTuOu2XjMB-142" style="edgeStyle=orthogonalEdgeStyle;rounded=0;orthogonalLoop=1;jettySize=auto;html=1;entryX=0.667;entryY=0;entryDx=0;entryDy=0;entryPerimeter=0;strokeColor=#B20000;" edge="1" parent="1" source="RmYFNsJNdAvTuOu2XjMB-143" target="RmYFNsJNdAvTuOu2XjMB-151">
          <mxGeometry relative="1" as="geometry" />
        </mxCell>
        <mxCell id="RmYFNsJNdAvTuOu2XjMB-143" value="&lt;font style=&quot;font-size: 16px;&quot;&gt;Country PM/&lt;br&gt;Copywriter/&lt;br&gt;Translator&lt;br&gt;&lt;/font&gt;" style="shape=umlActor;verticalLabelPosition=bottom;verticalAlign=top;html=1;outlineConnect=0;" vertex="1" parent="1">
          <mxGeometry x="2440" y="480" width="30" height="60" as="geometry" />
        </mxCell>
        <mxCell id="RmYFNsJNdAvTuOu2XjMB-144" style="edgeStyle=orthogonalEdgeStyle;rounded=0;orthogonalLoop=1;jettySize=auto;html=1;entryX=1;entryY=0.5;entryDx=0;entryDy=0;strokeColor=#B20000;" edge="1" parent="1" source="RmYFNsJNdAvTuOu2XjMB-145" target="RmYFNsJNdAvTuOu2XjMB-147">
          <mxGeometry relative="1" as="geometry" />
        </mxCell>
        <mxCell id="RmYFNsJNdAvTuOu2XjMB-145" value="&lt;font style=&quot;font-size: 16px;&quot;&gt;&amp;nbsp;Deployment&lt;br style=&quot;border-color: var(--border-color);&quot;&gt;Engeneer&lt;br&gt;&lt;/font&gt;" style="shape=umlActor;verticalLabelPosition=bottom;verticalAlign=top;html=1;outlineConnect=0;" vertex="1" parent="1">
          <mxGeometry x="2735" y="470" width="30" height="60" as="geometry" />
        </mxCell>
        <mxCell id="RmYFNsJNdAvTuOu2XjMB-146" style="edgeStyle=orthogonalEdgeStyle;rounded=0;orthogonalLoop=1;jettySize=auto;html=1;exitX=0.5;exitY=1;exitDx=0;exitDy=0;entryX=0.5;entryY=0;entryDx=0;entryDy=0;" edge="1" parent="1" source="RmYFNsJNdAvTuOu2XjMB-147" target="RmYFNsJNdAvTuOu2XjMB-149">
          <mxGeometry relative="1" as="geometry" />
        </mxCell>
        <mxCell id="RmYFNsJNdAvTuOu2XjMB-147" value="Armstrong UI" style="rounded=0;whiteSpace=wrap;html=1;fillColor=#d5e8d4;strokeColor=#82b366;" vertex="1" parent="1">
          <mxGeometry x="2520" y="580" width="120" height="60" as="geometry" />
        </mxCell>
        <mxCell id="RmYFNsJNdAvTuOu2XjMB-148" style="edgeStyle=orthogonalEdgeStyle;rounded=0;orthogonalLoop=1;jettySize=auto;html=1;exitX=0.5;exitY=1;exitDx=0;exitDy=0;entryX=0.5;entryY=0;entryDx=0;entryDy=0;" edge="1" parent="1" source="RmYFNsJNdAvTuOu2XjMB-149" target="RmYFNsJNdAvTuOu2XjMB-153">
          <mxGeometry relative="1" as="geometry" />
        </mxCell>
        <mxCell id="RmYFNsJNdAvTuOu2XjMB-149" value="Language&amp;nbsp;&lt;br&gt;Update Service" style="rounded=1;whiteSpace=wrap;html=1;fillColor=#d5e8d4;strokeColor=#82b366;" vertex="1" parent="1">
          <mxGeometry x="2520" y="700" width="120" height="60" as="geometry" />
        </mxCell>
        <mxCell id="RmYFNsJNdAvTuOu2XjMB-150" style="edgeStyle=orthogonalEdgeStyle;rounded=0;orthogonalLoop=1;jettySize=auto;html=1;exitX=1;exitY=0.5;exitDx=0;exitDy=0;entryX=0;entryY=0.5;entryDx=0;entryDy=0;" edge="1" parent="1" source="RmYFNsJNdAvTuOu2XjMB-151" target="RmYFNsJNdAvTuOu2XjMB-149">
          <mxGeometry relative="1" as="geometry" />
        </mxCell>
        <mxCell id="RmYFNsJNdAvTuOu2XjMB-151" value="Transifex" style="rounded=1;whiteSpace=wrap;html=1;fillColor=#dae8fc;strokeColor=#6c8ebf;" vertex="1" parent="1">
          <mxGeometry x="2360" y="790" width="120" height="60" as="geometry" />
        </mxCell>
        <mxCell id="RmYFNsJNdAvTuOu2XjMB-152" style="edgeStyle=orthogonalEdgeStyle;rounded=0;orthogonalLoop=1;jettySize=auto;html=1;exitX=0.5;exitY=1;exitDx=0;exitDy=0;" edge="1" parent="1" source="RmYFNsJNdAvTuOu2XjMB-153" target="RmYFNsJNdAvTuOu2XjMB-156">
          <mxGeometry relative="1" as="geometry" />
        </mxCell>
        <mxCell id="RmYFNsJNdAvTuOu2XjMB-153" value="Config CDN&lt;br&gt;(language delta file)" style="rounded=1;whiteSpace=wrap;html=1;fillColor=#dae8fc;strokeColor=#6c8ebf;" vertex="1" parent="1">
          <mxGeometry x="2520" y="790" width="120" height="60" as="geometry" />
        </mxCell>
        <mxCell id="RmYFNsJNdAvTuOu2XjMB-154" style="edgeStyle=orthogonalEdgeStyle;rounded=0;orthogonalLoop=1;jettySize=auto;html=1;exitX=0.5;exitY=0;exitDx=0;exitDy=0;entryX=1;entryY=0.5;entryDx=0;entryDy=0;" edge="1" parent="1" source="RmYFNsJNdAvTuOu2XjMB-155" target="RmYFNsJNdAvTuOu2XjMB-149">
          <mxGeometry relative="1" as="geometry" />
        </mxCell>
        <mxCell id="RmYFNsJNdAvTuOu2XjMB-155" value="Github &lt;br&gt;(LG repository)" style="rounded=1;whiteSpace=wrap;html=1;fillColor=#dae8fc;strokeColor=#6c8ebf;" vertex="1" parent="1">
          <mxGeometry x="2680" y="790" width="120" height="60" as="geometry" />
        </mxCell>
        <mxCell id="RmYFNsJNdAvTuOu2XjMB-156" value="OMW STB" style="rounded=1;whiteSpace=wrap;html=1;fillColor=#e1d5e7;strokeColor=#9673a6;" vertex="1" parent="1">
          <mxGeometry x="2520" y="883.5" width="120" height="60" as="geometry" />
        </mxCell>
        <mxCell id="RmYFNsJNdAvTuOu2XjMB-157" value="" style="endArrow=classic;html=1;rounded=0;" edge="1" parent="1">
          <mxGeometry width="50" height="50" relative="1" as="geometry">
            <mxPoint x="2710" y="840" as="sourcePoint" />
            <mxPoint x="2760" y="790" as="targetPoint" />
          </mxGeometry>
        </mxCell>
        <mxCell id="RmYFNsJNdAvTuOu2XjMB-163" value="" style="endArrow=classic;html=1;rounded=0;" edge="1" parent="1">
          <mxGeometry width="50" height="50" relative="1" as="geometry">
            <mxPoint x="2705" y="-782" as="sourcePoint" />
            <mxPoint x="3291" y="-715" as="targetPoint" />
          </mxGeometry>
        </mxCell>
        <mxCell id="RmYFNsJNdAvTuOu2XjMB-164" value="" style="endArrow=classic;html=1;rounded=0;" edge="1" parent="1">
          <mxGeometry width="50" height="50" relative="1" as="geometry">
            <mxPoint x="2870" y="-772" as="sourcePoint" />
            <mxPoint x="3228" y="-643" as="targetPoint" />
          </mxGeometry>
        </mxCell>
        <mxCell id="RmYFNsJNdAvTuOu2XjMB-165" value="" style="endArrow=classic;html=1;rounded=0;" edge="1" parent="1">
          <mxGeometry width="50" height="50" relative="1" as="geometry">
            <mxPoint x="3030" y="-780" as="sourcePoint" />
            <mxPoint x="3226" y="-669" as="targetPoint" />
          </mxGeometry>
        </mxCell>
        <mxCell id="RmYFNsJNdAvTuOu2XjMB-166" value="" style="endArrow=classic;html=1;rounded=0;" edge="1" parent="1">
          <mxGeometry width="50" height="50" relative="1" as="geometry">
            <mxPoint x="3080" y="-780.5" as="sourcePoint" />
            <mxPoint x="3234" y="-769" as="targetPoint" />
          </mxGeometry>
        </mxCell>
        <mxCell id="RmYFNsJNdAvTuOu2XjMB-167" value="" style="endArrow=classic;html=1;rounded=0;" edge="1" parent="1">
          <mxGeometry width="50" height="50" relative="1" as="geometry">
            <mxPoint x="2689" y="-775" as="sourcePoint" />
            <mxPoint x="3255" y="-582" as="targetPoint" />
          </mxGeometry>
        </mxCell>
        <mxCell id="RmYFNsJNdAvTuOu2XjMB-170" value="" style="endArrow=classic;html=1;rounded=0;entryX=0.585;entryY=0.571;entryDx=0;entryDy=0;entryPerimeter=0;" edge="1" parent="1" target="RmYFNsJNdAvTuOu2XjMB-138">
          <mxGeometry width="50" height="50" relative="1" as="geometry">
            <mxPoint x="2693" y="-776" as="sourcePoint" />
            <mxPoint x="3265" y="-572" as="targetPoint" />
          </mxGeometry>
        </mxCell>
        <mxCell id="RmYFNsJNdAvTuOu2XjMB-171" value="" style="endArrow=classic;html=1;rounded=0;" edge="1" parent="1">
          <mxGeometry width="50" height="50" relative="1" as="geometry">
            <mxPoint x="3523" y="-780" as="sourcePoint" />
            <mxPoint x="3363" y="-777" as="targetPoint" />
          </mxGeometry>
        </mxCell>
        <mxCell id="RmYFNsJNdAvTuOu2XjMB-172" value="" style="endArrow=classic;html=1;rounded=0;" edge="1" parent="1">
          <mxGeometry width="50" height="50" relative="1" as="geometry">
            <mxPoint x="3578" y="-769" as="sourcePoint" />
            <mxPoint x="3372" y="-659" as="targetPoint" />
          </mxGeometry>
        </mxCell>
        <mxCell id="RmYFNsJNdAvTuOu2XjMB-173" value="" style="endArrow=classic;html=1;rounded=0;" edge="1" parent="1">
          <mxGeometry width="50" height="50" relative="1" as="geometry">
            <mxPoint x="3731" y="-768" as="sourcePoint" />
            <mxPoint x="3368" y="-791" as="targetPoint" />
          </mxGeometry>
        </mxCell>
      </root>
    </mxGraphModel>
  </diagram>
</mxfile>
